<svg width="30" height="30" viewBox="0 0 30 30" fill="none" xmlns="http://www.w3.org/2000/svg">
<g id="calendar-days-regular 1" clip-path="url(#clip0_62_81)">
<path id="Vector" d="M10.1786 1.40625C10.1786 0.626953 9.46205 0 8.57143 0C7.6808 0 6.96429 0.626953 6.96429 1.40625V3.75H4.28571C1.92188 3.75 0 5.43164 0 7.5V8.4375V11.25V26.25C0 28.3184 1.92188 30 4.28571 30H25.7143C28.0781 30 30 28.3184 30 26.25V11.25V8.4375V7.5C30 5.43164 28.0781 3.75 25.7143 3.75H23.0357V1.40625C23.0357 0.626953 22.3192 0 21.4286 0C20.5379 0 19.8214 0.626953 19.8214 1.40625V3.75H10.1786V1.40625ZM3.21429 11.25H8.57143V14.5312H3.21429V11.25ZM3.21429 17.3438H8.57143V21.0938H3.21429V17.3438ZM11.7857 17.3438H18.2143V21.0938H11.7857V17.3438ZM21.4286 17.3438H26.7857V21.0938H21.4286V17.3438ZM26.7857 14.5312H21.4286V11.25H26.7857V14.5312ZM26.7857 23.9062V26.25C26.7857 26.7656 26.3036 27.1875 25.7143 27.1875H21.4286V23.9062H26.7857ZM18.2143 23.9062V27.1875H11.7857V23.9062H18.2143ZM8.57143 23.9062V27.1875H4.28571C3.69643 27.1875 3.21429 26.7656 3.21429 26.25V23.9062H8.57143ZM18.2143 14.5312H11.7857V11.25H18.2143V14.5312Z" fill="#3AC672"/>
</g>
<defs>
<clipPath id="clip0_62_81">
<rect width="30" height="30" fill="white"/>
</clipPath>
</defs>
</svg>
