<svg xmlns="http://www.w3.org/2000/svg" width="35" height="40" viewBox="0 0 35 40" fill="none">
<path d="M4.375 2.85714C4.375 1.27679 3.39746 0 2.1875 0C0.977539 0 0 1.27679 0 2.85714V32.8571C0 36.8036 2.44727 40 5.46875 40H32.8125C34.0225 40 35 38.7232 35 37.1429C35 35.5625 34.0225 34.2857 32.8125 34.2857H5.46875C4.86719 34.2857 4.375 33.6429 4.375 32.8571V2.85714ZM32.1699 10.5893C33.0244 9.47322 33.0244 7.66071 32.1699 6.54464C31.3154 5.42857 29.9277 5.42857 29.0732 6.54464L21.875 15.9554L17.9512 10.8304C17.0967 9.71429 15.709 9.71429 14.8545 10.8304L7.19824 20.8304C6.34375 21.9464 6.34375 23.7589 7.19824 24.875C8.05273 25.9911 9.44043 25.9911 10.2949 24.875L16.4062 16.9018L20.3301 22.0268C21.1846 23.1429 22.5723 23.1429 23.4268 22.0268L32.1768 10.5982L32.1699 10.5893Z" fill="#5FCEFF"/>
</svg>