<svg width="35" height="40" viewBox="0 0 35 40" fill="none" xmlns="http://www.w3.org/2000/svg">
<g id="Group">
<g id="Group_2">
<g id="Group_3">
<path id="Vector" d="M23.5785 34.6827C23.3971 34.5461 23.2391 34.3631 23.1135 34.1413C23.0555 34.0391 23.0065 33.9309 22.9659 33.8191H2.35722V8.69028H30.3305V25.0985C30.9277 25.1653 31.4288 25.6505 31.6392 26.3149C31.8254 26.1886 32.0331 26.1105 32.2513 26.0867C32.3989 26.0708 32.5455 26.0822 32.6877 26.1169V2.43013C32.6877 1.09015 31.8066 0 30.7235 0H1.96433C0.881229 0 0 1.09015 0 2.43013V34.3053C0 35.6453 0.881229 36.7353 1.96433 36.7353H23.3995C23.2322 36.3163 23.1925 35.8432 23.2909 35.3881C23.3477 35.1263 23.4459 34.8875 23.5785 34.6827ZM28.1734 4.08067C28.1734 3.58514 28.4981 3.18333 28.8987 3.18333H29.624C30.0246 3.18333 30.3493 3.58503 30.3493 4.08067V5.09762C30.3493 5.59315 30.0246 5.99485 29.624 5.99485H28.8987C28.498 5.99485 28.1734 5.59315 28.1734 5.09762V4.08067ZM24.8008 4.08067C24.8008 3.58514 25.1255 3.18333 25.5261 3.18333H26.2514C26.6521 3.18333 26.9767 3.58503 26.9767 4.08067V5.09762C26.9767 5.59315 26.652 5.99485 26.2514 5.99485H25.5261C25.1255 5.99485 24.8008 5.59315 24.8008 5.09762V4.08067ZM21.428 4.08067C21.428 3.58514 21.7528 3.18333 22.1533 3.18333H22.8786C23.2793 3.18333 23.604 3.58503 23.604 4.08067V5.09762C23.604 5.59315 23.2793 5.99485 22.8786 5.99485H22.1533C21.7528 5.99485 21.428 5.59315 21.428 5.09762V4.08067Z" fill="#5FCEFF"/>
<path id="Vector_2" d="M34.9954 32.9715L34.7775 31.4425C34.748 31.2366 34.5894 31.099 34.4228 31.1353L33.3236 31.3749C33.1917 30.9919 33.0232 30.6331 32.8231 30.3047L33.5411 29.246C33.5933 29.1693 33.6187 29.0698 33.6117 28.9696C33.6045 28.8695 33.5655 28.7771 33.5033 28.7125L32.542 27.7144C32.4798 27.6499 32.3992 27.6185 32.3184 27.6273C32.2375 27.6361 32.1628 27.6842 32.1106 27.7611L31.3933 28.819C31.0988 28.6334 30.7839 28.4903 30.4539 28.3959V27.015C30.4539 26.8059 30.3168 26.6362 30.1478 26.6362H28.8926C28.7236 26.6362 28.5864 26.8059 28.5864 27.015V28.3959C28.2563 28.4902 27.9417 28.6334 27.647 28.819L26.9296 27.7612C26.8209 27.601 26.6279 27.5802 26.4983 27.7145L25.5368 28.7125C25.4747 28.7771 25.4357 28.8695 25.4286 28.9696C25.4216 29.0698 25.4469 29.1694 25.4991 29.2463L26.2171 30.3048C26.0174 30.6331 25.8486 30.9921 25.7166 31.375L24.6174 31.1353C24.4512 31.0991 24.2923 31.2366 24.2628 31.4425L24.0449 32.9715C24.0308 33.0704 24.0491 33.1721 24.0955 33.2545C24.1423 33.3369 24.213 33.3928 24.2931 33.4103L25.3931 33.6501C25.411 34.0717 25.4703 34.4796 25.5658 34.868L24.599 35.5583C24.5287 35.6083 24.4774 35.6912 24.4563 35.7881C24.4353 35.8851 24.4464 35.9885 24.4869 36.0755L25.1144 37.4201C25.1549 37.5071 25.2219 37.5705 25.3002 37.5965C25.3263 37.6052 25.3529 37.6094 25.3795 37.6094C25.4327 37.6094 25.4855 37.5923 25.5325 37.5587L26.5001 36.8676C26.7276 37.1691 26.9845 37.4364 27.2652 37.6624L26.8831 38.9608C26.8555 39.0553 26.8591 39.1594 26.8934 39.2505C26.9277 39.3415 26.9898 39.4119 27.0661 39.4462L28.2453 39.9771C28.2791 39.9923 28.3146 40.0002 28.3501 40.0002C28.3942 40.0002 28.4387 39.9883 28.4796 39.9646C28.5532 39.9222 28.6099 39.8453 28.6377 39.7508L29.0197 38.4524C29.1834 38.477 29.3501 38.4896 29.5193 38.4896C29.6884 38.4896 29.8551 38.4767 30.0188 38.4524L30.4009 39.7508C30.4286 39.8453 30.4856 39.9222 30.559 39.9646C30.5998 39.9882 30.6441 40.0002 30.6885 40.0002C30.7239 40.0002 30.7594 39.9925 30.7932 39.9771L31.9726 39.4462C32.0487 39.4119 32.1108 39.3413 32.1451 39.2505C32.1794 39.1594 32.1831 39.0553 32.1554 38.9608L31.7733 37.6626C32.0538 37.4366 32.3106 37.1691 32.5384 36.8678L33.506 37.5589C33.5529 37.5923 33.6058 37.6096 33.659 37.6096C33.6855 37.6096 33.7124 37.6052 33.7383 37.5967C33.8167 37.5707 33.8836 37.5071 33.9241 37.4203L34.5516 36.0755C34.5921 35.9887 34.6032 35.8851 34.5822 35.7881C34.5611 35.6914 34.5098 35.6085 34.4395 35.5583L33.4728 34.8682C33.5683 34.4797 33.6275 34.0718 33.6454 33.6503L34.7455 33.4104C34.8255 33.3929 34.8965 33.337 34.943 33.2546C34.9912 33.1721 35.0095 33.0704 34.9954 32.9715ZM29.5203 35.4014C28.5905 35.4014 27.8366 34.4688 27.8366 33.3185C27.8366 32.1682 28.5906 31.2357 29.5203 31.2357C30.4501 31.2357 31.2039 32.1682 31.2039 33.3185C31.2039 34.4688 30.4501 35.4014 29.5203 35.4014Z" fill="#5FCEFF"/>
<g id="Group_4">
<path id="Vector_3" d="M13.7269 22.6198C13.7269 22.1298 13.4947 21.6797 13.1354 21.4733L9.84697 19.5832L13.1355 17.6928C13.4947 17.4862 13.7269 17.0362 13.7269 16.5464V16.5136C13.7269 16.0795 13.5502 15.681 13.2547 15.448C13.0912 15.3188 12.9007 15.2505 12.7041 15.2505C12.5559 15.2505 12.4071 15.2908 12.274 15.3673L7.01666 18.3918C6.65752 18.5984 6.42557 19.0483 6.42557 19.538V19.6284C6.42557 20.1175 6.65744 20.5671 7.01675 20.7748L12.2746 23.7995C12.4106 23.8774 12.5553 23.9168 12.7049 23.9168C12.8997 23.9168 13.0896 23.8484 13.2547 23.7185C13.5504 23.4846 13.7269 23.0864 13.7269 22.6529L13.7269 22.6198Z" fill="#5FCEFF"/>
<path id="Vector_4" d="M18.9141 12.1685C18.7223 11.8437 18.4139 11.6499 18.0889 11.6499H18.0627C17.6165 11.6499 17.2253 12.003 17.0893 12.528L13.6254 25.8053C13.5268 26.1886 13.5823 26.6108 13.7738 26.9355C13.9656 27.2601 14.2741 27.4541 14.5991 27.4541H14.6253C15.0714 27.4541 15.4624 27.1008 15.5982 26.576L19.0616 13.2997C19.1612 12.9167 19.106 12.4938 18.9141 12.1685Z" fill="#5FCEFF"/>
<path id="Vector_5" d="M25.671 18.3915L20.4136 15.3671C20.2809 15.2908 20.1324 15.2505 19.9842 15.2505C19.7876 15.2505 19.5971 15.3186 19.4337 15.4476C19.1376 15.681 18.961 16.0794 18.961 16.5134V16.5463C18.961 17.0357 19.193 17.4857 19.5525 17.6932L22.8409 19.5832L19.5524 21.4732C19.1931 21.6796 18.961 22.1297 18.961 22.6197V22.6528C18.961 23.0863 19.1376 23.4844 19.4335 23.7185C19.598 23.8482 19.7881 23.9167 19.9832 23.9167C20.1325 23.9167 20.2771 23.8773 20.414 23.7991L25.6717 20.7744C26.0307 20.5672 26.2625 20.1175 26.2625 19.6284V19.538C26.2622 19.0482 26.0303 18.5983 25.671 18.3915Z" fill="#5FCEFF"/>
</g>
</g>
</g>
</g>
</svg>
