<svg xmlns="http://www.w3.org/2000/svg" width="35" height="40" viewBox="0 0 35 40" fill="none">
<path d="M2.88368 39.9695C2.26431 39.9111 1.67876 39.5999 1.18274 39.0642C1.00195 38.8697 0.703925 38.4441 0.566578 38.1874C0.327461 37.7435 0.144625 37.1604 0.0609334 36.5885L0.0230253 36.3201V29.8208V23.3215H6.57979H13.1365V25.5323C13.1365 27.9656 13.1377 27.8384 13.2561 28.1764C13.4019 28.5938 13.7206 28.9564 14.0618 29.0961C14.1639 29.1389 14.3184 29.1389 17.5211 29.1389H20.8723L21.021 29.0727C21.3887 28.9055 21.7168 28.4616 21.8419 27.959L21.8856 27.7917V25.5572V23.3223H28.4429H35V29.8698V36.4174L34.9592 36.6585C34.8629 37.2172 34.7201 37.6708 34.5057 38.0963C34.2579 38.5853 33.9703 38.9701 33.6029 39.2996C33.1404 39.715 32.6957 39.9142 32.1052 39.971C31.8072 40.0099 3.20735 40.0099 2.89125 39.9695H2.88368ZM15.0052 24.9846V23.3223H17.5068H20.0088V24.9846V26.6472H17.5068H15.0052V24.9846ZM0.0166093 15.5579C0.0166093 9.85183 0.0166095 10.2443 0.118672 9.70906C0.273224 8.89485 0.699552 8.05925 1.23931 7.50451C1.62336 7.11044 2.00828 6.87197 2.49293 6.72764L2.71163 6.66151H6.36487H10.0178V4.34298V2.02444L10.0586 1.82993C10.2482 0.937529 10.8057 0.233799 11.4712 0.0427919C11.617 1.4492e-07 11.8777 0 17.5226 0H23.4209L23.5959 0.0661326C24.3558 0.346224 24.8903 1.1616 24.9839 2.18199C24.9839 2.31037 25.0131 3.19732 25.0131 4.52542V6.66423H28.5441C30.9828 6.66423 32.1326 6.66423 32.261 6.70314C32.9098 6.7965 33.5259 7.18396 34.0147 7.80794C34.5226 8.45682 34.8125 9.13954 34.9519 10.0144L34.9927 10.279V15.5614V20.8439H17.4964H0V15.5855L0.0166093 15.5579ZM22.5018 4.97474V3.30002H17.5068H12.5122V4.97474V6.64906H17.5068H22.5018V4.97474Z" fill="#5FCEFF"/>
</svg>