<svg width="35" height="40" viewBox="0 0 35 40" fill="none" xmlns="http://www.w3.org/2000/svg">
<g id="Group 26">
<path id="Vector" d="M34.0137 10.4919V29.5076L17.4993 39.0162L0.986298 29.5076V10.4919L17.4993 0.983398L34.0137 10.4919Z" fill="#5FCEFF"/>
<g id="Vector_2">
<mask id="path-2-inside-1_224_790" fill="white">
<path d="M17.4993 40C17.3262 40 17.1561 39.9545 17.0062 39.8682L0.493136 30.3597C0.343197 30.2733 0.218688 30.1491 0.132125 29.9996C0.0455622 29.85 -6.05647e-06 29.6804 1.60817e-09 29.5077V10.4922C-9.88421e-06 10.3195 0.0455582 10.1499 0.132123 10.0004C0.218688 9.85086 0.343198 9.7267 0.493136 9.64039L17.0062 0.131842C17.1561 0.0454722 17.3262 0 17.4993 0C17.6724 0 17.8425 0.0454722 17.9924 0.131842L34.5069 9.64039C34.6568 9.7267 34.7813 9.85086 34.8679 10.0004C34.9544 10.1499 35 10.3195 35 10.4922V29.5079C35 29.6805 34.9544 29.8502 34.8679 29.9997C34.7813 30.1493 34.6568 30.2734 34.5069 30.3598L17.9924 39.8683C17.8425 39.9546 17.6724 40 17.4993 40ZM1.97255 28.94L17.4993 37.8806L33.0275 28.94V11.06L17.4993 2.1194L1.97255 11.06V28.94Z"/>
</mask>
<path d="M17.4993 40C17.3262 40 17.1561 39.9545 17.0062 39.8682L0.493136 30.3597C0.343197 30.2733 0.218688 30.1491 0.132125 29.9996C0.0455622 29.85 -6.05647e-06 29.6804 1.60817e-09 29.5077V10.4922C-9.88421e-06 10.3195 0.0455582 10.1499 0.132123 10.0004C0.218688 9.85086 0.343198 9.7267 0.493136 9.64039L17.0062 0.131842C17.1561 0.0454722 17.3262 0 17.4993 0C17.6724 0 17.8425 0.0454722 17.9924 0.131842L34.5069 9.64039C34.6568 9.7267 34.7813 9.85086 34.8679 10.0004C34.9544 10.1499 35 10.3195 35 10.4922V29.5079C35 29.6805 34.9544 29.8502 34.8679 29.9997C34.7813 30.1493 34.6568 30.2734 34.5069 30.3598L17.9924 39.8683C17.8425 39.9546 17.6724 40 17.4993 40ZM1.97255 28.94L17.4993 37.8806L33.0275 28.94V11.06L17.4993 2.1194L1.97255 11.06V28.94Z" fill="#4F46A3"/>
<path d="M17.4993 40L17.4992 42H17.4996L17.4993 40ZM17.0062 39.8682L18.0042 38.135L18.0042 38.135L17.0062 39.8682ZM0.493136 30.3597L-0.504967 32.0928L-0.504875 32.0928L0.493136 30.3597ZM1.60817e-09 29.5077L2 29.5078V29.5077H1.60817e-09ZM1.60817e-09 10.4922H2V10.4921L1.60817e-09 10.4922ZM0.493136 9.64039L1.49095 11.3737L1.49115 11.3736L0.493136 9.64039ZM17.0062 0.131842L18.0042 1.86504L18.0045 1.86482L17.0062 0.131842ZM17.9924 0.131842L16.994 1.86482L16.9945 1.86508L17.9924 0.131842ZM34.5069 9.64039L33.5089 11.3736L33.509 11.3737L34.5069 9.64039ZM35 10.4922L33 10.4921V10.4922H35ZM35 29.5079H33V29.5079L35 29.5079ZM34.5069 30.3598L35.5048 32.093L35.505 32.0929L34.5069 30.3598ZM17.9924 39.8683L18.9894 41.6021L18.9904 41.6016L17.9924 39.8683ZM1.97255 28.94H-0.027455V30.0963L0.974537 30.6732L1.97255 28.94ZM17.4993 37.8806L16.5013 39.6138L17.4992 40.1885L18.4972 39.6139L17.4993 37.8806ZM33.0275 28.94L34.0254 30.6733L35.0275 30.0963V28.94H33.0275ZM33.0275 11.06H35.0275V9.90371L34.0254 9.32675L33.0275 11.06ZM17.4993 2.1194L18.4972 0.386166L17.4992 -0.188441L16.5013 0.386205L17.4993 2.1194ZM1.97255 11.06L0.974537 9.32679L-0.027455 9.90376V11.06H1.97255ZM17.4994 38C17.6763 38 17.8504 38.0464 18.0042 38.135L16.0081 41.6014C16.4618 41.8626 16.9761 42 17.4992 42L17.4994 38ZM18.0042 38.135L1.49115 28.6265L-0.504875 32.0928L16.0081 41.6014L18.0042 38.135ZM1.49124 28.6265C1.64507 28.7151 1.77349 28.8429 1.86306 28.9976L-1.5988 31.0015C-1.33612 31.4553 -0.958677 31.8315 -0.504967 32.0928L1.49124 28.6265ZM1.86306 28.9976C1.95264 29.1524 2.00001 29.3284 2 29.5078L-2 29.5077C-2.00002 30.0324 -1.86151 30.5477 -1.5988 31.0015L1.86306 28.9976ZM2 29.5077V10.4922H-2V29.5077H2ZM2 10.4921C2.00001 10.6716 1.95261 10.8476 1.86298 11.0024L-1.59874 8.99832C-1.8615 9.45219 -2.00003 9.96747 -2 10.4923L2 10.4921ZM1.86298 11.0024C1.77337 11.1572 1.64488 11.2851 1.49095 11.3737L-0.504682 7.90708C-0.958485 8.16832 -1.336 8.5445 -1.59874 8.99832L1.86298 11.0024ZM1.49115 11.3736L18.0042 1.86504L16.0081 -1.60136L-0.504875 7.90719L1.49115 11.3736ZM18.0045 1.86482C17.8506 1.95352 17.6763 2 17.4993 2V-2C16.976 -2 16.4616 -1.86257 16.0078 -1.60114L18.0045 1.86482ZM17.4993 2C17.3222 2 17.148 1.95352 16.994 1.86482L18.9908 -1.60114C18.537 -1.86257 18.0226 -2 17.4993 -2V2ZM16.9945 1.86508L33.5089 11.3736L35.5048 7.90715L18.9904 -1.60139L16.9945 1.86508ZM33.509 11.3737C33.3551 11.2851 33.2266 11.1572 33.137 11.0024L36.5987 8.99832C36.336 8.5445 35.9585 8.16832 35.5047 7.90708L33.509 11.3737ZM33.137 11.0024C33.0474 10.8476 33 10.6716 33 10.4921L37 10.4923C37 9.96746 36.8615 9.45219 36.5987 8.99832L33.137 11.0024ZM33 10.4922V29.5079H37V10.4922H33ZM33 29.5079C33 29.3285 33.0474 29.1525 33.1369 28.9978L36.5988 31.0017C36.8615 30.5478 37 30.0326 37 29.5078L33 29.5079ZM33.1369 28.9978C33.2265 28.8431 33.3549 28.7152 33.5088 28.6267L35.505 32.0929C35.9587 31.8316 36.3361 31.4555 36.5988 31.0017L33.1369 28.9978ZM33.5089 28.6266L16.9945 38.1351L18.9904 41.6016L35.5048 32.093L33.5089 28.6266ZM16.9955 38.1345C17.1489 38.0463 17.3226 38 17.499 38L17.4996 42C18.0222 41.9999 18.536 41.8629 18.9894 41.6021L16.9955 38.1345ZM0.974537 30.6732L16.5013 39.6138L18.4973 36.1474L2.97055 27.2068L0.974537 30.6732ZM18.4972 39.6139L34.0254 30.6733L32.0295 27.2068L16.5014 36.1474L18.4972 39.6139ZM35.0275 28.94V11.06H31.0275V28.94H35.0275ZM34.0254 9.32675L18.4972 0.386166L16.5014 3.85264L32.0295 12.7932L34.0254 9.32675ZM16.5013 0.386205L0.974537 9.32679L2.97055 12.7932L18.4973 3.8526L16.5013 0.386205ZM-0.027455 11.06V28.94H3.97254V11.06H-0.027455Z" fill="#5FCEFF" mask="url(#path-2-inside-1_224_790)"/>
</g>
<path id="Vector_3" d="M12.7962 29.8128C10.6656 29.8128 8.66262 28.9853 7.15616 27.4829C5.64885 25.9799 4.8187 23.9818 4.8187 21.8569V12.1306C4.8187 11.8697 4.92261 11.6195 5.10757 11.4351C5.29253 11.2506 5.54339 11.147 5.80497 11.147C6.06654 11.147 6.31741 11.2506 6.50237 11.4351C6.68733 11.6195 6.79124 11.8697 6.79124 12.1306V21.8569C6.79124 23.4564 7.41626 24.9603 8.55103 26.092C9.68482 27.223 11.1926 27.8456 12.7962 27.8456C16.1073 27.8456 18.8012 25.1591 18.8012 21.8569V12.1306C18.8012 11.8697 18.9051 11.6195 19.0901 11.4351C19.2751 11.2506 19.5259 11.147 19.7875 11.147C20.0491 11.147 20.2999 11.2506 20.4849 11.4351C20.6699 11.6195 20.7738 11.8697 20.7738 12.1306V21.8569C20.7738 26.2437 17.195 29.8128 12.7962 29.8128ZM25.9531 29.8128C25.6915 29.8128 25.4407 29.7092 25.2557 29.5247C25.0707 29.3402 24.9668 29.09 24.9668 28.8292V12.1306C24.9668 12.0014 24.9923 11.8735 25.0419 11.7542C25.0915 11.6348 25.1641 11.5264 25.2557 11.4351C25.3473 11.3437 25.456 11.2713 25.5757 11.2218C25.6953 11.1724 25.8236 11.147 25.9531 11.147C26.0826 11.147 26.2109 11.1724 26.3305 11.2218C26.4502 11.2713 26.5589 11.3437 26.6505 11.4351C26.7421 11.5264 26.8147 11.6348 26.8643 11.7542C26.9139 11.8735 26.9394 12.0014 26.9394 12.1306V28.8292C26.9394 29.09 26.8355 29.3402 26.6505 29.5247C26.4655 29.7092 26.2147 29.8128 25.9531 29.8128Z" fill="#4F46A3"/>
<path id="Vector_4" d="M12.7962 26.3519C11.438 26.3519 10.1623 25.8247 9.20422 24.8675C8.24556 23.9133 7.71692 22.6406 7.71692 21.2852V12.2191C7.71692 11.9582 7.82083 11.708 8.00579 11.5236C8.19075 11.3391 8.44161 11.2355 8.70319 11.2355C8.96477 11.2355 9.21563 11.3391 9.40059 11.5236C9.58555 11.708 9.68946 11.9582 9.68946 12.2191V21.2852C9.68946 22.1145 10.0124 22.8926 10.5989 23.4766C11.1856 24.0628 11.9655 24.3849 12.7962 24.3849C14.5094 24.3849 15.903 22.9944 15.903 21.2852V12.2191C15.903 11.9582 16.0069 11.708 16.1919 11.5236C16.3768 11.3391 16.6277 11.2355 16.8893 11.2355C17.1508 11.2355 17.4017 11.3391 17.5867 11.5236C17.7716 11.708 17.8755 11.9582 17.8755 12.2191V21.2852C17.8755 24.079 15.597 26.3519 12.7962 26.3519ZM29.0528 29.8128C28.7912 29.8128 28.5404 29.7092 28.3554 29.5247C28.1705 29.3402 28.0665 29.09 28.0665 28.8292V12.1306C28.0665 11.8697 28.1705 11.6195 28.3554 11.4351C28.5404 11.2506 28.7912 11.147 29.0528 11.147C29.3144 11.147 29.5653 11.2506 29.7502 11.4351C29.9352 11.6195 30.0391 11.8697 30.0391 12.1306V28.8292C30.0391 29.09 29.9352 29.3402 29.7502 29.5247C29.5653 29.7092 29.3144 29.8128 29.0528 29.8128Z" fill="#4F46A3"/>
</g>
</svg>
