<svg width="28" height="30" viewBox="0 0 28 30" fill="none" xmlns="http://www.w3.org/2000/svg">
<g id="user-solid 1" clip-path="url(#clip0_27_4)">
<rect width="28" height="30" fill="url(#paint0_linear_27_4)"/>
<rect width="28" height="30" fill="black" fill-opacity="0.99"/>
<rect width="28" height="30" fill="black"/>
<path id="Vector" d="M14 15C16.1217 15 18.1566 14.2098 19.6569 12.8033C21.1571 11.3968 22 9.48912 22 7.5C22 5.51088 21.1571 3.60322 19.6569 2.1967C18.1566 0.790176 16.1217 0 14 0C11.8783 0 9.84344 0.790176 8.34315 2.1967C6.84285 3.60322 6 5.51088 6 7.5C6 9.48912 6.84285 11.3968 8.34315 12.8033C9.84344 14.2098 11.8783 15 14 15ZM11.1438 17.8125C4.9875 17.8125 0 22.4883 0 28.2598C0 29.2207 0.83125 30 1.85625 30H26.1437C27.1687 30 28 29.2207 28 28.2598C28 22.4883 23.0125 17.8125 16.8563 17.8125H11.1438Z" fill="#FCFFFD"/>
</g>
<defs>
<linearGradient id="paint0_linear_27_4" x1="14" y1="0" x2="14" y2="30" gradientUnits="userSpaceOnUse">
<stop offset="0.130208" stop-color="#020000"/>
<stop offset="1" stop-color="#FFF5F5" stop-opacity="0"/>
</linearGradient>
<clipPath id="clip0_27_4">
<rect width="28" height="30" fill="white"/>
</clipPath>
</defs>
</svg>
