<svg width="320" height="87" viewBox="0 0 320 87" fill="none" xmlns="http://www.w3.org/2000/svg">
<path d="M1.59801 17V2.45455H10.7173V4.34375H3.79261V8.77557H10.2415V10.6577H3.79261V15.1108H10.8026V17H1.59801ZM13.4783 17V6.09091H15.5167V7.86648H15.6516C15.8789 7.26515 16.2506 6.7964 16.7667 6.46023C17.2828 6.11932 17.9007 5.94886 18.6204 5.94886C19.3496 5.94886 19.9603 6.11932 20.4528 6.46023C20.9499 6.80114 21.3169 7.26989 21.5536 7.86648H21.6673C21.9277 7.28409 22.342 6.82008 22.9102 6.47443C23.4783 6.12405 24.1554 5.94886 24.9414 5.94886C25.931 5.94886 26.7383 6.259 27.3633 6.87926C27.993 7.49953 28.3079 8.43466 28.3079 9.68466V17H26.1843V9.88352C26.1843 9.14489 25.9831 8.60985 25.5806 8.27841C25.1781 7.94697 24.6976 7.78125 24.1388 7.78125C23.4476 7.78125 22.9102 7.99432 22.5266 8.42045C22.1431 8.84186 21.9513 9.384 21.9513 10.0469V17H19.8349V9.74858C19.8349 9.15672 19.6502 8.68087 19.2809 8.32102C18.9116 7.96117 18.431 7.78125 17.8391 7.78125C17.4367 7.78125 17.065 7.88778 16.7241 8.10085C16.3879 8.30919 16.1156 8.60038 15.9073 8.97443C15.7037 9.34848 15.6019 9.78172 15.6019 10.2741V17H13.4783ZM34.3288 17.2415C33.6375 17.2415 33.0125 17.1136 32.4538 16.858C31.8951 16.5975 31.4524 16.2211 31.1257 15.7287C30.8037 15.2363 30.6428 14.6326 30.6428 13.9176C30.6428 13.3021 30.7611 12.7955 30.9979 12.3977C31.2346 12 31.5542 11.6851 31.9567 11.4531C32.3591 11.2211 32.8089 11.0459 33.3061 10.9276C33.8033 10.8092 34.3099 10.7192 34.826 10.6577C35.4794 10.5819 36.0097 10.5204 36.4169 10.473C36.8241 10.4209 37.12 10.3381 37.3047 10.2244C37.4893 10.1108 37.5817 9.92614 37.5817 9.67045V9.62074C37.5817 9.00047 37.4065 8.51989 37.0561 8.17898C36.7105 7.83807 36.1944 7.66761 35.5078 7.66761C34.7929 7.66761 34.2294 7.82623 33.8175 8.14347C33.4103 8.45597 33.1286 8.80398 32.9723 9.1875L30.9766 8.73295C31.2133 8.07008 31.5589 7.53504 32.0135 7.12784C32.4728 6.71591 33.0007 6.41761 33.5973 6.23295C34.1939 6.04356 34.8213 5.94886 35.4794 5.94886C35.915 5.94886 36.3767 6.00095 36.8643 6.10511C37.3568 6.20455 37.8161 6.3892 38.2422 6.65909C38.6731 6.92898 39.0258 7.31487 39.3004 7.81676C39.575 8.31392 39.7124 8.96023 39.7124 9.75568V17H37.6385V15.5085H37.5533C37.416 15.7831 37.21 16.053 36.9354 16.3182C36.6607 16.5833 36.308 16.8035 35.8771 16.9787C35.4463 17.1539 34.9302 17.2415 34.3288 17.2415ZM34.7905 15.5369C35.3776 15.5369 35.8795 15.4209 36.2962 15.1889C36.7176 14.9569 37.0372 14.6539 37.255 14.2798C37.4775 13.901 37.5888 13.4962 37.5888 13.0653V11.6591C37.513 11.7348 37.3662 11.8059 37.1484 11.8722C36.9354 11.9337 36.6915 11.9882 36.4169 12.0355C36.1423 12.0781 35.8748 12.1184 35.6143 12.1562C35.3539 12.1894 35.1361 12.2178 34.9609 12.2415C34.549 12.2936 34.1726 12.3812 33.8317 12.5043C33.4955 12.6274 33.2256 12.8049 33.022 13.0369C32.8232 13.2642 32.7237 13.5672 32.7237 13.946C32.7237 14.4716 32.9179 14.8693 33.3061 15.1392C33.6944 15.4044 34.1892 15.5369 34.7905 15.5369ZM42.5408 17V6.09091H44.6644V17H42.5408ZM43.6133 4.40767C43.244 4.40767 42.9267 4.28456 42.6616 4.03835C42.4012 3.7874 42.271 3.48911 42.271 3.14347C42.271 2.79309 42.4012 2.49479 42.6616 2.24858C42.9267 1.99763 43.244 1.87216 43.6133 1.87216C43.9826 1.87216 44.2975 1.99763 44.5579 2.24858C44.823 2.49479 44.9556 2.79309 44.9556 3.14347C44.9556 3.48911 44.823 3.7874 44.5579 4.03835C44.2975 4.28456 43.9826 4.40767 43.6133 4.40767ZM49.6449 2.45455V17H47.5213V2.45455H49.6449ZM59.1939 17H56.8643L62.0987 2.45455H64.6342L69.8686 17H67.5391L63.4268 5.09659H63.3132L59.1939 17ZM59.5845 11.304H67.1413V13.1506H59.5845V11.304ZM75.7067 17.2131C74.826 17.2131 74.04 16.9882 73.3487 16.5384C72.6622 16.0838 72.1224 15.4375 71.7294 14.5994C71.3411 13.7566 71.147 12.7457 71.147 11.5668C71.147 10.3878 71.3435 9.37926 71.7365 8.54119C72.1342 7.70312 72.6787 7.06155 73.37 6.61648C74.0613 6.1714 74.8449 5.94886 75.7209 5.94886C76.398 5.94886 76.9425 6.0625 77.3544 6.28977C77.7711 6.51231 78.093 6.77273 78.3203 7.07102C78.5523 7.36932 78.7322 7.6321 78.8601 7.85938H78.9879V2.45455H81.1115V17H79.0376V15.3026H78.8601C78.7322 15.5346 78.5476 15.7997 78.3061 16.098C78.0694 16.3963 77.7427 16.6567 77.326 16.8793C76.9093 17.1018 76.3696 17.2131 75.7067 17.2131ZM76.1754 15.402C76.7862 15.402 77.3023 15.241 77.7237 14.919C78.1499 14.5923 78.4718 14.1402 78.6896 13.5625C78.9122 12.9848 79.0234 12.3125 79.0234 11.5455C79.0234 10.7879 78.9145 10.125 78.6967 9.55682C78.4789 8.98864 78.1593 8.54593 77.7379 8.22869C77.3165 7.91146 76.7957 7.75284 76.1754 7.75284C75.5362 7.75284 75.0036 7.91856 74.5774 8.25C74.1513 8.58144 73.8293 9.03362 73.6115 9.60653C73.3984 10.1795 73.2919 10.8258 73.2919 11.5455C73.2919 12.2746 73.4008 12.9304 73.6186 13.5128C73.8364 14.0952 74.1584 14.5568 74.5845 14.8977C75.0154 15.2339 75.5457 15.402 76.1754 15.402ZM88.2262 17.2131C87.3455 17.2131 86.5595 16.9882 85.8683 16.5384C85.1817 16.0838 84.6419 15.4375 84.2489 14.5994C83.8607 13.7566 83.6665 12.7457 83.6665 11.5668C83.6665 10.3878 83.863 9.37926 84.256 8.54119C84.6538 7.70312 85.1983 7.06155 85.8896 6.61648C86.5808 6.1714 87.3645 5.94886 88.2404 5.94886C88.9175 5.94886 89.462 6.0625 89.8739 6.28977C90.2906 6.51231 90.6126 6.77273 90.8398 7.07102C91.0719 7.36932 91.2518 7.6321 91.3796 7.85938H91.5075V2.45455H93.631V17H91.5572V15.3026H91.3796C91.2518 15.5346 91.0671 15.7997 90.8256 16.098C90.5889 16.3963 90.2622 16.6567 89.8455 16.8793C89.4289 17.1018 88.8891 17.2131 88.2262 17.2131ZM88.695 15.402C89.3058 15.402 89.8219 15.241 90.2433 14.919C90.6694 14.5923 90.9914 14.1402 91.2092 13.5625C91.4317 12.9848 91.543 12.3125 91.543 11.5455C91.543 10.7879 91.4341 10.125 91.2163 9.55682C90.9985 8.98864 90.6789 8.54593 90.2575 8.22869C89.8361 7.91146 89.3152 7.75284 88.695 7.75284C88.0558 7.75284 87.5231 7.91856 87.0969 8.25C86.6708 8.58144 86.3488 9.03362 86.131 9.60653C85.918 10.1795 85.8114 10.8258 85.8114 11.5455C85.8114 12.2746 85.9203 12.9304 86.1381 13.5128C86.3559 14.0952 86.6779 14.5568 87.104 14.8977C87.5349 15.2339 88.0652 15.402 88.695 15.402ZM96.6619 17V6.09091H98.7145V7.82386H98.8281C99.027 7.23674 99.3774 6.77509 99.8793 6.43892C100.386 6.09801 100.959 5.92756 101.598 5.92756C101.731 5.92756 101.887 5.93229 102.067 5.94176C102.251 5.95123 102.396 5.96307 102.5 5.97727V8.00852C102.415 7.98485 102.263 7.95881 102.045 7.9304C101.828 7.89725 101.61 7.88068 101.392 7.88068C100.89 7.88068 100.443 7.98722 100.05 8.20028C99.6615 8.40862 99.3537 8.69981 99.1264 9.07386C98.8991 9.44318 98.7855 9.86458 98.7855 10.3381V17H96.6619ZM108.649 17.2202C107.574 17.2202 106.648 16.9905 105.872 16.5312C105.1 16.0672 104.503 15.4162 104.082 14.5781C103.665 13.7353 103.457 12.7481 103.457 11.6165C103.457 10.4991 103.665 9.5142 104.082 8.66193C104.503 7.80966 105.091 7.14441 105.843 6.66619C106.601 6.18797 107.486 5.94886 108.5 5.94886C109.115 5.94886 109.712 6.05066 110.289 6.25426C110.867 6.45786 111.386 6.77746 111.845 7.21307C112.304 7.64867 112.666 8.21449 112.931 8.91051C113.197 9.6018 113.329 10.4422 113.329 11.4318V12.1847H104.657V10.5938H111.248C111.248 10.035 111.135 9.54025 110.907 9.10938C110.68 8.67377 110.36 8.33049 109.949 8.07955C109.541 7.8286 109.063 7.70312 108.514 7.70312C107.917 7.70312 107.396 7.84991 106.951 8.14347C106.511 8.43229 106.17 8.81108 105.929 9.27983C105.692 9.74384 105.574 10.2481 105.574 10.7926V12.0355C105.574 12.7647 105.701 13.3849 105.957 13.8963C106.217 14.4077 106.58 14.7983 107.044 15.0682C107.508 15.3333 108.05 15.4659 108.67 15.4659C109.073 15.4659 109.44 15.4091 109.771 15.2955C110.102 15.1771 110.389 15.0019 110.63 14.7699C110.872 14.5379 111.056 14.2514 111.184 13.9105L113.194 14.2727C113.033 14.8646 112.744 15.383 112.328 15.8281C111.916 16.2685 111.397 16.6117 110.772 16.858C110.152 17.0994 109.444 17.2202 108.649 17.2202ZM123.86 8.75426L121.935 9.09517C121.855 8.84896 121.727 8.61458 121.552 8.39205C121.381 8.16951 121.149 7.98722 120.856 7.84517C120.562 7.70312 120.195 7.6321 119.755 7.6321C119.154 7.6321 118.652 7.76705 118.249 8.03693C117.847 8.30208 117.646 8.64536 117.646 9.06676C117.646 9.43134 117.781 9.72491 118.05 9.94744C118.32 10.17 118.756 10.3523 119.357 10.4943L121.09 10.892C122.094 11.1241 122.842 11.4815 123.335 11.9645C123.827 12.4474 124.073 13.0748 124.073 13.8466C124.073 14.5 123.884 15.0824 123.505 15.5938C123.131 16.1004 122.608 16.4981 121.935 16.7869C121.268 17.0758 120.494 17.2202 119.613 17.2202C118.391 17.2202 117.395 16.9598 116.623 16.4389C115.851 15.9134 115.378 15.1676 115.202 14.2017L117.255 13.8892C117.383 14.4242 117.646 14.8291 118.043 15.1037C118.441 15.3736 118.96 15.5085 119.599 15.5085C120.295 15.5085 120.851 15.3641 121.268 15.0753C121.684 14.7817 121.893 14.4242 121.893 14.0028C121.893 13.6619 121.765 13.3755 121.509 13.1435C121.258 12.9115 120.872 12.7363 120.352 12.6179L118.505 12.2131C117.487 11.9811 116.734 11.6117 116.246 11.1051C115.763 10.5985 115.522 9.95691 115.522 9.1804C115.522 8.53646 115.702 7.97301 116.062 7.49006C116.422 7.0071 116.919 6.63068 117.553 6.3608C118.188 6.08617 118.915 5.94886 119.734 5.94886C120.913 5.94886 121.841 6.20455 122.518 6.71591C123.195 7.22254 123.642 7.90199 123.86 8.75426ZM134.583 8.75426L132.658 9.09517C132.578 8.84896 132.45 8.61458 132.275 8.39205C132.104 8.16951 131.872 7.98722 131.578 7.84517C131.285 7.70312 130.918 7.6321 130.478 7.6321C129.876 7.6321 129.374 7.76705 128.972 8.03693C128.569 8.30208 128.368 8.64536 128.368 9.06676C128.368 9.43134 128.503 9.72491 128.773 9.94744C129.043 10.17 129.479 10.3523 130.08 10.4943L131.813 10.892C132.817 11.1241 133.565 11.4815 134.057 11.9645C134.55 12.4474 134.796 13.0748 134.796 13.8466C134.796 14.5 134.606 15.0824 134.228 15.5938C133.854 16.1004 133.33 16.4981 132.658 16.7869C131.99 17.0758 131.216 17.2202 130.336 17.2202C129.114 17.2202 128.117 16.9598 127.346 16.4389C126.574 15.9134 126.1 15.1676 125.925 14.2017L127.978 13.8892C128.105 14.4242 128.368 14.8291 128.766 15.1037C129.164 15.3736 129.682 15.5085 130.321 15.5085C131.017 15.5085 131.574 15.3641 131.99 15.0753C132.407 14.7817 132.615 14.4242 132.615 14.0028C132.615 13.6619 132.488 13.3755 132.232 13.1435C131.981 12.9115 131.595 12.7363 131.074 12.6179L129.228 12.2131C128.21 11.9811 127.457 11.6117 126.969 11.1051C126.486 10.5985 126.245 9.95691 126.245 9.1804C126.245 8.53646 126.425 7.97301 126.784 7.49006C127.144 7.0071 127.641 6.63068 128.276 6.3608C128.91 6.08617 129.637 5.94886 130.456 5.94886C131.635 5.94886 132.563 6.20455 133.24 6.71591C133.917 7.22254 134.365 7.90199 134.583 8.75426Z" fill="black"/>
<rect x="1" y="38" width="318" height="48" rx="9" fill="white" stroke="#C3C0C0" stroke-width="2"/>
<path d="M39.25 71.2175H38.395C37.495 71.2175 36.64 71.5662 36.01 72.1962L34.0862 74.0975C33.2087 74.9637 31.78 74.9637 30.9025 74.0975L28.9787 72.1962C28.3487 71.5662 27.4825 71.2175 26.5938 71.2175H25.75C23.8825 71.2175 22.375 69.7212 22.375 67.8762V55.6025C22.375 53.7575 23.8825 52.2612 25.75 52.2612H39.25C41.1175 52.2612 42.625 53.7575 42.625 55.6025V67.8762C42.625 69.71 41.1175 71.2175 39.25 71.2175Z" stroke="black" stroke-width="1.5" stroke-miterlimit="10" stroke-linecap="round" stroke-linejoin="round"/>
<path d="M37 67.6173C37 65.5923 34.9863 63.9498 32.5 63.9498C30.0137 63.9498 28 65.5923 28 67.6173M32.5 61.2498C32.8442 61.2498 33.1851 61.182 33.5031 61.0503C33.8211 60.9186 34.1101 60.7255 34.3535 60.4821C34.5969 60.2387 34.79 59.9497 34.9217 59.6317C35.0534 59.3137 35.1212 58.9728 35.1212 58.6286C35.1212 58.2843 35.0534 57.9435 34.9217 57.6255C34.79 57.3074 34.5969 57.0185 34.3535 56.7751C34.1101 56.5317 33.8211 56.3386 33.5031 56.2069C33.1851 56.0751 32.8442 56.0073 32.5 56.0073C31.8048 56.0073 31.1381 56.2835 30.6465 56.7751C30.1549 57.2667 29.8788 57.9334 29.8788 58.6286C29.8788 59.3238 30.1549 59.9905 30.6465 60.4821C31.1381 60.9737 31.8048 61.2498 32.5 61.2498Z" stroke="black" stroke-width="1.5" stroke-linecap="round" stroke-linejoin="round"/>
<path d="M70.3562 71.8864V57.6364H72.3263V59.3164H72.495C72.612 59.1005 72.7807 58.8509 73.0011 58.5675C73.2215 58.2841 73.5273 58.0367 73.9187 57.8253C74.31 57.6094 74.8273 57.5014 75.4705 57.5014C76.3072 57.5014 77.0539 57.7128 77.7106 58.1357C78.3673 58.5585 78.8823 59.168 79.2557 59.9641C79.6335 60.7603 79.8224 61.7184 79.8224 62.8384C79.8224 63.9585 79.6358 64.9188 79.2624 65.7195C78.8891 66.5156 78.3763 67.1296 77.7241 67.5614C77.0719 67.9888 76.3274 68.2024 75.4908 68.2024C74.861 68.2024 74.346 68.0967 73.9457 67.8853C73.5498 67.6739 73.2395 67.4265 73.0146 67.1431C72.7897 66.8597 72.6165 66.6078 72.495 66.3874H72.3736V71.8864H70.3562ZM72.3331 62.8182C72.3331 63.5469 72.4388 64.1856 72.6502 64.7344C72.8616 65.2831 73.1675 65.7127 73.5678 66.0231C73.9682 66.329 74.4585 66.4819 75.0387 66.4819C75.6415 66.4819 76.1452 66.3222 76.5501 66.0028C76.9549 65.679 77.2608 65.2404 77.4677 64.6871C77.6791 64.1339 77.7848 63.5109 77.7848 62.8182C77.7848 62.1345 77.6813 61.5205 77.4744 60.9762C77.272 60.4319 76.9661 60.0024 76.5568 59.6875C76.152 59.3726 75.646 59.2152 75.0387 59.2152C74.454 59.2152 73.9592 59.3659 73.5543 59.6673C73.154 59.9686 72.8504 60.3892 72.6435 60.929C72.4366 61.4687 72.3331 62.0985 72.3331 62.8182ZM86.5494 68.2092C85.5283 68.2092 84.6489 67.991 83.9112 67.5547C83.178 67.1139 82.6113 66.4954 82.2109 65.6992C81.8151 64.8986 81.6172 63.9607 81.6172 62.8857C81.6172 61.8241 81.8151 60.8885 82.2109 60.0788C82.6113 59.2692 83.169 58.6372 83.8842 58.1829C84.6039 57.7286 85.4451 57.5014 86.4077 57.5014C86.9924 57.5014 87.5592 57.5981 88.108 57.7915C88.6567 57.985 89.1493 58.2886 89.5856 58.7024C90.0219 59.1162 90.366 59.6538 90.6179 60.315C90.8698 60.9717 90.9957 61.7701 90.9957 62.7102V63.4254H82.7575V61.9141H89.0188C89.0188 61.3833 88.9109 60.9132 88.695 60.5039C88.479 60.0901 88.1754 59.764 87.7841 59.5256C87.3973 59.2872 86.9429 59.168 86.4212 59.168C85.8544 59.168 85.3596 59.3074 84.9368 59.5863C84.5185 59.8607 84.1946 60.2205 83.9652 60.6658C83.7403 61.1067 83.6278 61.5857 83.6278 62.103V63.2837C83.6278 63.9764 83.7493 64.5657 83.9922 65.0515C84.2396 65.5373 84.5837 65.9084 85.0245 66.1648C85.4653 66.4167 85.9804 66.5426 86.5696 66.5426C86.9519 66.5426 87.3005 66.4886 87.6154 66.3807C87.9303 66.2682 88.2024 66.1018 88.4318 65.8814C88.6612 65.661 88.8366 65.3888 88.9581 65.065L90.8675 65.4091C90.7146 65.9714 90.4402 66.4639 90.0444 66.8867C89.6531 67.305 89.1605 67.6312 88.5668 67.8651C87.9775 68.0945 87.305 68.2092 86.5494 68.2092ZM98.0718 57.6364V59.2557H92.411V57.6364H98.0718ZM93.9291 55.1534H95.9465V64.957C95.9465 65.3484 96.0049 65.643 96.1219 65.8409C96.2388 66.0343 96.3895 66.167 96.574 66.239C96.7629 66.3065 96.9675 66.3402 97.1879 66.3402C97.3499 66.3402 97.4916 66.329 97.613 66.3065C97.7345 66.284 97.8289 66.266 97.8964 66.2525L98.2607 67.919C98.1438 67.964 97.9774 68.009 97.7615 68.054C97.5455 68.1035 97.2757 68.1304 96.9518 68.1349C96.421 68.1439 95.9262 68.0495 95.4674 67.8516C95.0086 67.6536 94.6375 67.3478 94.3541 66.9339C94.0708 66.5201 93.9291 66.0006 93.9291 65.3754V55.1534ZM104.659 68.2092C103.638 68.2092 102.758 67.991 102.021 67.5547C101.287 67.1139 100.721 66.4954 100.32 65.6992C99.9245 64.8986 99.7266 63.9607 99.7266 62.8857C99.7266 61.8241 99.9245 60.8885 100.32 60.0788C100.721 59.2692 101.278 58.6372 101.994 58.1829C102.713 57.7286 103.554 57.5014 104.517 57.5014C105.102 57.5014 105.669 57.5981 106.217 57.7915C106.766 57.985 107.259 58.2886 107.695 58.7024C108.131 59.1162 108.475 59.6538 108.727 60.315C108.979 60.9717 109.105 61.7701 109.105 62.7102V63.4254H100.867V61.9141H107.128C107.128 61.3833 107.02 60.9132 106.804 60.5039C106.588 60.0901 106.285 59.764 105.893 59.5256C105.507 59.2872 105.052 59.168 104.531 59.168C103.964 59.168 103.469 59.3074 103.046 59.5863C102.628 59.8607 102.304 60.2205 102.075 60.6658C101.85 61.1067 101.737 61.5857 101.737 62.103V63.2837C101.737 63.9764 101.859 64.5657 102.102 65.0515C102.349 65.5373 102.693 65.9084 103.134 66.1648C103.575 66.4167 104.09 66.5426 104.679 66.5426C105.061 66.5426 105.41 66.4886 105.725 66.3807C106.04 66.2682 106.312 66.1018 106.541 65.8814C106.771 65.661 106.946 65.3888 107.067 65.065L108.977 65.4091C108.824 65.9714 108.55 66.4639 108.154 66.8867C107.762 67.305 107.27 67.6312 106.676 67.8651C106.087 68.0945 105.414 68.2092 104.659 68.2092ZM111.343 68V57.6364H113.293V59.2827H113.401C113.59 58.7249 113.923 58.2863 114.4 57.967C114.881 57.6431 115.426 57.4812 116.033 57.4812C116.159 57.4812 116.307 57.4857 116.478 57.4947C116.653 57.5037 116.791 57.5149 116.89 57.5284V59.4581C116.809 59.4356 116.665 59.4109 116.458 59.3839C116.251 59.3524 116.044 59.3366 115.837 59.3366C115.36 59.3366 114.935 59.4379 114.562 59.6403C114.193 59.8382 113.901 60.1148 113.685 60.4702C113.469 60.821 113.361 61.2214 113.361 61.6712V68H111.343ZM122.63 68.2092C121.658 68.2092 120.81 67.9865 120.086 67.5412C119.362 67.0959 118.8 66.4729 118.399 65.6722C117.999 64.8716 117.799 63.936 117.799 62.8654C117.799 61.7904 117.999 60.8503 118.399 60.0451C118.8 59.2399 119.362 58.6147 120.086 58.1694C120.81 57.7241 121.658 57.5014 122.63 57.5014C123.601 57.5014 124.449 57.7241 125.173 58.1694C125.898 58.6147 126.46 59.2399 126.86 60.0451C127.261 60.8503 127.461 61.7904 127.461 62.8654C127.461 63.936 127.261 64.8716 126.86 65.6722C126.46 66.4729 125.898 67.0959 125.173 67.5412C124.449 67.9865 123.601 68.2092 122.63 68.2092ZM122.637 66.5156C123.266 66.5156 123.788 66.3492 124.202 66.0163C124.616 65.6835 124.922 65.2404 125.119 64.6871C125.322 64.1339 125.423 63.5244 125.423 62.8587C125.423 62.1974 125.322 61.5902 125.119 61.0369C124.922 60.4792 124.616 60.0316 124.202 59.6942C123.788 59.3569 123.266 59.1882 122.637 59.1882C122.002 59.1882 121.476 59.3569 121.058 59.6942C120.644 60.0316 120.336 60.4792 120.133 61.0369C119.935 61.5902 119.836 62.1974 119.836 62.8587C119.836 63.5244 119.935 64.1339 120.133 64.6871C120.336 65.2404 120.644 65.6835 121.058 66.0163C121.476 66.3492 122.002 66.5156 122.637 66.5156ZM129.875 68V54.1818H131.892V59.3164H132.013C132.13 59.1005 132.299 58.8509 132.519 58.5675C132.74 58.2841 133.046 58.0367 133.437 57.8253C133.828 57.6094 134.346 57.5014 134.989 57.5014C135.826 57.5014 136.572 57.7128 137.229 58.1357C137.886 58.5585 138.401 59.168 138.774 59.9641C139.152 60.7603 139.341 61.7184 139.341 62.8384C139.341 63.9585 139.154 64.9188 138.781 65.7195C138.407 66.5156 137.895 67.1296 137.242 67.5614C136.59 67.9888 135.846 68.2024 135.009 68.2024C134.379 68.2024 133.864 68.0967 133.464 67.8853C133.068 67.6739 132.758 67.4265 132.533 67.1431C132.308 66.8597 132.135 66.6078 132.013 66.3874H131.845V68H129.875ZM131.851 62.8182C131.851 63.5469 131.957 64.1856 132.169 64.7344C132.38 65.2831 132.686 65.7127 133.086 66.0231C133.487 66.329 133.977 66.4819 134.557 66.4819C135.16 66.4819 135.664 66.3222 136.068 66.0028C136.473 65.679 136.779 65.2404 136.986 64.6871C137.197 64.1339 137.303 63.5109 137.303 62.8182C137.303 62.1345 137.2 61.5205 136.993 60.9762C136.79 60.4319 136.485 60.0024 136.075 59.6875C135.67 59.3726 135.164 59.2152 134.557 59.2152C133.972 59.2152 133.478 59.3659 133.073 59.6673C132.672 59.9686 132.369 60.3892 132.162 60.929C131.955 61.4687 131.851 62.0985 131.851 62.8182ZM141.606 68V57.6364H143.624V68H141.606ZM142.625 56.0373C142.274 56.0373 141.973 55.9203 141.721 55.6864C141.473 55.448 141.35 55.1647 141.35 54.8363C141.35 54.5034 141.473 54.2201 141.721 53.9861C141.973 53.7478 142.274 53.6286 142.625 53.6286C142.976 53.6286 143.275 53.7478 143.522 53.9861C143.774 54.2201 143.9 54.5034 143.9 54.8363C143.9 55.1647 143.774 55.448 143.522 55.6864C143.275 55.9203 142.976 56.0373 142.625 56.0373ZM154.657 71.7582C153.262 71.7582 152.025 71.567 150.946 71.1847C149.871 70.8068 148.965 70.2491 148.227 69.5114C147.489 68.7782 146.929 67.8786 146.547 66.8125C146.164 65.7464 145.973 64.5297 145.973 63.1623C145.973 61.8308 146.167 60.6344 146.554 59.5728C146.94 58.5112 147.503 57.6071 148.24 56.8604C148.983 56.1093 149.884 55.5357 150.946 55.1399C152.007 54.7441 153.213 54.5462 154.562 54.5462C155.853 54.5462 156.991 54.7486 157.976 55.1534C158.962 55.5582 159.789 56.1138 160.459 56.82C161.134 57.5262 161.642 58.3358 161.984 59.2489C162.326 60.162 162.497 61.1269 162.497 62.1435C162.497 62.8542 162.452 63.5491 162.362 64.2283C162.272 64.9031 162.106 65.5148 161.863 66.0636C161.624 66.6078 161.278 67.0442 160.824 67.3725C160.374 67.6964 159.789 67.8651 159.07 67.8786C158.687 67.892 158.316 67.8471 157.956 67.7436C157.596 67.6402 157.291 67.4737 157.039 67.2443C156.787 67.0104 156.634 66.7135 156.58 66.3537H156.499C156.391 66.6191 156.211 66.8665 155.959 67.0959C155.707 67.3208 155.386 67.5007 154.994 67.6357C154.607 67.7661 154.158 67.8201 153.645 67.7976C153.078 67.7751 152.568 67.6469 152.113 67.413C151.659 67.1791 151.27 66.8552 150.946 66.4414C150.627 66.0276 150.381 65.5373 150.21 64.9705C150.04 64.4038 149.954 63.774 149.954 63.0813C149.954 62.4156 150.051 61.8196 150.244 61.2933C150.438 60.7625 150.701 60.306 151.034 59.9237C151.371 59.5368 151.758 59.2309 152.194 59.006C152.63 58.7811 153.092 58.6394 153.577 58.581C154.05 58.527 154.484 58.5405 154.88 58.6214C155.275 58.7024 155.604 58.8261 155.865 58.9925C156.13 59.159 156.296 59.3411 156.364 59.5391H156.452V58.7834H158.111V65.0447C158.111 65.4001 158.204 65.7015 158.388 65.9489C158.577 66.1963 158.845 66.32 159.191 66.32C159.6 66.32 159.92 66.1693 160.149 65.8679C160.383 65.5665 160.547 65.1032 160.642 64.478C160.741 63.8527 160.79 63.0521 160.79 62.076C160.79 61.3923 160.698 60.7491 160.513 60.1463C160.333 59.5391 160.066 58.9903 159.71 58.5C159.36 58.0052 158.928 57.5801 158.415 57.2248C157.902 56.8694 157.318 56.5951 156.661 56.4016C156.009 56.2082 155.287 56.1115 154.495 56.1115C153.42 56.1115 152.464 56.2779 151.627 56.6108C150.791 56.9392 150.085 57.4137 149.509 58.0344C148.938 58.6552 148.503 59.3996 148.207 60.2678C147.914 61.1314 147.768 62.1007 147.768 63.1758C147.768 64.2958 147.919 65.2899 148.22 66.158C148.521 67.0217 148.967 67.7504 149.556 68.3441C150.145 68.9379 150.874 69.3877 151.742 69.6935C152.61 70.0039 153.611 70.1591 154.745 70.1591C155.248 70.1591 155.743 70.1141 156.229 70.0241C156.715 69.9387 157.147 69.8397 157.524 69.7273C157.907 69.6193 158.192 69.5316 158.381 69.4641L158.854 70.9418C158.575 71.0722 158.204 71.2004 157.74 71.3263C157.282 71.4523 156.782 71.5558 156.242 71.6367C155.707 71.7177 155.179 71.7582 154.657 71.7582ZM154.036 66.1445C154.621 66.1445 155.091 66.0276 155.446 65.7937C155.806 65.5598 156.065 65.2112 156.222 64.7479C156.384 64.2801 156.465 63.6953 156.465 62.9936C156.461 62.3099 156.373 61.7656 156.202 61.3608C156.036 60.9515 155.775 60.6591 155.419 60.4837C155.068 60.3037 154.616 60.2138 154.063 60.2138C153.555 60.2138 153.121 60.3375 152.761 60.5849C152.406 60.8323 152.133 61.1674 151.945 61.5902C151.76 62.013 151.666 62.4831 151.661 63.0004C151.666 63.5446 151.742 64.0574 151.891 64.5387C152.043 65.0155 152.291 65.4023 152.633 65.6992C152.979 65.9961 153.447 66.1445 154.036 66.1445ZM169.07 72.1023C168.247 72.1023 167.539 71.9943 166.945 71.7784C166.356 71.5625 165.875 71.2769 165.501 70.9215C165.128 70.5662 164.849 70.1771 164.665 69.7543L166.399 69.0391C166.52 69.237 166.682 69.4461 166.884 69.6665C167.091 69.8915 167.37 70.0826 167.721 70.2401C168.076 70.3975 168.533 70.4762 169.091 70.4762C169.855 70.4762 170.487 70.2895 170.987 69.9162C171.486 69.5473 171.736 68.9581 171.736 68.1484V66.1108H171.607C171.486 66.3312 171.311 66.5763 171.081 66.8462C170.856 67.1161 170.546 67.35 170.15 67.5479C169.754 67.7459 169.239 67.8448 168.605 67.8448C167.786 67.8448 167.049 67.6536 166.392 67.2713C165.74 66.8845 165.222 66.3155 164.84 65.5643C164.462 64.8086 164.273 63.8797 164.273 62.7777C164.273 61.6757 164.46 60.7311 164.833 59.9439C165.211 59.1567 165.728 58.554 166.385 58.1357C167.042 57.7128 167.786 57.5014 168.618 57.5014C169.262 57.5014 169.781 57.6094 170.177 57.8253C170.573 58.0367 170.881 58.2841 171.101 58.5675C171.326 58.8509 171.499 59.1005 171.621 59.3164H171.769V57.6364H173.746V68.2294C173.746 69.12 173.539 69.851 173.126 70.4222C172.712 70.9935 172.152 71.4163 171.445 71.6907C170.744 71.9651 169.952 72.1023 169.07 72.1023ZM169.05 66.1715C169.631 66.1715 170.121 66.0366 170.521 65.7667C170.926 65.4923 171.232 65.101 171.439 64.5927C171.65 64.0799 171.756 63.4659 171.756 62.7507C171.756 62.0535 171.652 61.4395 171.445 60.9087C171.239 60.378 170.935 59.9641 170.535 59.6673C170.134 59.3659 169.64 59.2152 169.05 59.2152C168.443 59.2152 167.937 59.3726 167.532 59.6875C167.127 59.9979 166.821 60.4207 166.615 60.956C166.412 61.4912 166.311 62.0895 166.311 62.7507C166.311 63.4299 166.414 64.0259 166.621 64.5387C166.828 65.0515 167.134 65.4518 167.539 65.7397C167.948 66.0276 168.452 66.1715 169.05 66.1715ZM176.452 68V57.6364H178.388V59.3232H178.517C178.732 58.7519 179.086 58.3066 179.576 57.9872C180.066 57.6634 180.653 57.5014 181.337 57.5014C182.03 57.5014 182.61 57.6634 183.078 57.9872C183.55 58.3111 183.898 58.7564 184.123 59.3232H184.231C184.479 58.7699 184.872 58.3291 185.412 58.0007C185.952 57.6679 186.595 57.5014 187.342 57.5014C188.282 57.5014 189.049 57.796 189.643 58.3853C190.241 58.9745 190.54 59.8629 190.54 61.0504V68H188.523V61.2393C188.523 60.5376 188.331 60.0294 187.949 59.7145C187.567 59.3996 187.11 59.2422 186.579 59.2422C185.923 59.2422 185.412 59.4446 185.048 59.8494C184.683 60.2498 184.501 60.7648 184.501 61.3945V68H182.491V61.1112C182.491 60.5489 182.315 60.0968 181.964 59.755C181.613 59.4131 181.157 59.2422 180.595 59.2422C180.212 59.2422 179.859 59.3434 179.535 59.5458C179.216 59.7437 178.957 60.0204 178.759 60.3757C178.566 60.7311 178.469 61.1426 178.469 61.6104V68H176.452ZM196.26 68.2294C195.603 68.2294 195.009 68.108 194.479 67.8651C193.948 67.6177 193.527 67.2601 193.217 66.7923C192.911 66.3245 192.758 65.7509 192.758 65.0717C192.758 64.487 192.871 64.0057 193.095 63.6278C193.32 63.25 193.624 62.9509 194.006 62.7305C194.389 62.5101 194.816 62.3436 195.288 62.2312C195.761 62.1187 196.242 62.0333 196.732 61.9748C197.353 61.9028 197.857 61.8443 198.244 61.7994C198.63 61.7499 198.911 61.6712 199.087 61.5632C199.262 61.4553 199.35 61.2798 199.35 61.0369V60.9897C199.35 60.4004 199.184 59.9439 198.851 59.62C198.522 59.2962 198.032 59.1342 197.38 59.1342C196.701 59.1342 196.165 59.2849 195.774 59.5863C195.387 59.8832 195.12 60.2138 194.971 60.5781L193.075 60.1463C193.3 59.5166 193.628 59.0083 194.06 58.6214C194.497 58.2301 194.998 57.9467 195.565 57.7713C196.132 57.5914 196.728 57.5014 197.353 57.5014C197.767 57.5014 198.205 57.5509 198.669 57.6499C199.136 57.7443 199.573 57.9197 199.978 58.1761C200.387 58.4325 200.722 58.7991 200.983 59.2759C201.244 59.7482 201.374 60.3622 201.374 61.1179V68H199.404V66.5831H199.323C199.193 66.844 198.997 67.1004 198.736 67.3523C198.475 67.6042 198.14 67.8133 197.731 67.9798C197.321 68.1462 196.831 68.2294 196.26 68.2294ZM196.698 66.6101C197.256 66.6101 197.733 66.4999 198.129 66.2795C198.529 66.0591 198.833 65.7712 199.04 65.4158C199.251 65.056 199.357 64.6714 199.357 64.2621V62.9261C199.285 62.9981 199.145 63.0656 198.938 63.1286C198.736 63.187 198.504 63.2388 198.244 63.2837C197.983 63.3242 197.728 63.3625 197.481 63.3984C197.234 63.4299 197.027 63.4569 196.86 63.4794C196.469 63.5289 196.111 63.6121 195.788 63.729C195.468 63.846 195.212 64.0147 195.018 64.2351C194.829 64.451 194.735 64.7389 194.735 65.0987C194.735 65.598 194.919 65.9759 195.288 66.2322C195.657 66.4841 196.127 66.6101 196.698 66.6101ZM204.061 68V57.6364H206.079V68H204.061ZM205.08 56.0373C204.729 56.0373 204.428 55.9203 204.176 55.6864C203.929 55.448 203.805 55.1647 203.805 54.8363C203.805 54.5034 203.929 54.2201 204.176 53.9861C204.428 53.7478 204.729 53.6286 205.08 53.6286C205.431 53.6286 205.73 53.7478 205.977 53.9861C206.229 54.2201 206.355 54.5034 206.355 54.8363C206.355 55.1647 206.229 55.448 205.977 55.6864C205.73 55.9203 205.431 56.0373 205.08 56.0373ZM210.81 54.1818V68H208.793V54.1818H210.81ZM214.853 68.1282C214.484 68.1282 214.167 67.9978 213.902 67.7369C213.637 67.4715 213.504 67.1521 213.504 66.7788C213.504 66.4099 213.637 66.0951 213.902 65.8342C214.167 65.5688 214.484 65.4361 214.853 65.4361C215.222 65.4361 215.539 65.5688 215.805 65.8342C216.07 66.0951 216.203 66.4099 216.203 66.7788C216.203 67.0262 216.14 67.2533 216.014 67.4602C215.892 67.6626 215.73 67.8246 215.528 67.946C215.326 68.0675 215.101 68.1282 214.853 68.1282ZM223.27 68.2092C222.267 68.2092 221.404 67.982 220.68 67.5277C219.96 67.0689 219.407 66.4369 219.02 65.6317C218.633 64.8266 218.439 63.9045 218.439 62.8654C218.439 61.8129 218.637 60.884 219.033 60.0788C219.429 59.2692 219.987 58.6372 220.706 58.1829C221.426 57.7286 222.274 57.5014 223.25 57.5014C224.037 57.5014 224.739 57.6476 225.355 57.94C225.972 58.2279 226.469 58.6327 226.846 59.1545C227.229 59.6763 227.456 60.2857 227.528 60.983H225.564C225.456 60.4972 225.209 60.0788 224.822 59.728C224.44 59.3771 223.927 59.2017 223.284 59.2017C222.722 59.2017 222.229 59.3501 221.806 59.647C221.388 59.9394 221.062 60.3577 220.828 60.902C220.594 61.4418 220.477 62.0805 220.477 62.8182C220.477 63.5739 220.592 64.2261 220.821 64.7749C221.051 65.3236 221.374 65.7487 221.793 66.0501C222.216 66.3514 222.713 66.5021 223.284 66.5021C223.666 66.5021 224.013 66.4324 224.323 66.293C224.638 66.149 224.901 65.9444 225.112 65.679C225.328 65.4136 225.479 65.0942 225.564 64.7209H227.528C227.456 65.3911 227.238 65.9893 226.873 66.5156C226.509 67.0419 226.021 67.4557 225.409 67.7571C224.802 68.0585 224.089 68.2092 223.27 68.2092ZM234.051 68.2092C233.079 68.2092 232.231 67.9865 231.507 67.5412C230.783 67.0959 230.221 66.4729 229.82 65.6722C229.42 64.8716 229.22 63.936 229.22 62.8654C229.22 61.7904 229.42 60.8503 229.82 60.0451C230.221 59.2399 230.783 58.6147 231.507 58.1694C232.231 57.7241 233.079 57.5014 234.051 57.5014C235.022 57.5014 235.87 57.7241 236.594 58.1694C237.319 58.6147 237.881 59.2399 238.281 60.0451C238.681 60.8503 238.882 61.7904 238.882 62.8654C238.882 63.936 238.681 64.8716 238.281 65.6722C237.881 66.4729 237.319 67.0959 236.594 67.5412C235.87 67.9865 235.022 68.2092 234.051 68.2092ZM234.057 66.5156C234.687 66.5156 235.209 66.3492 235.623 66.0163C236.037 65.6835 236.342 65.2404 236.54 64.6871C236.743 64.1339 236.844 63.5244 236.844 62.8587C236.844 62.1974 236.743 61.5902 236.54 61.0369C236.342 60.4792 236.037 60.0316 235.623 59.6942C235.209 59.3569 234.687 59.1882 234.057 59.1882C233.423 59.1882 232.897 59.3569 232.479 59.6942C232.065 60.0316 231.757 60.4792 231.554 61.0369C231.356 61.5902 231.257 62.1974 231.257 62.8587C231.257 63.5244 231.356 64.1339 231.554 64.6871C231.757 65.2404 232.065 65.6835 232.479 66.0163C232.897 66.3492 233.423 66.5156 234.057 66.5156ZM241.134 68V57.6364H243.07V59.3232H243.198C243.414 58.7519 243.767 58.3066 244.257 57.9872C244.748 57.6634 245.335 57.5014 246.018 57.5014C246.711 57.5014 247.291 57.6634 247.759 57.9872C248.232 58.3111 248.58 58.7564 248.805 59.3232H248.913C249.16 58.7699 249.554 58.3291 250.094 58.0007C250.634 57.6679 251.277 57.5014 252.023 57.5014C252.964 57.5014 253.73 57.796 254.324 58.3853C254.922 58.9745 255.222 59.8629 255.222 61.0504V68H253.204V61.2393C253.204 60.5376 253.013 60.0294 252.631 59.7145C252.248 59.3996 251.792 59.2422 251.261 59.2422C250.604 59.2422 250.094 59.4446 249.729 59.8494C249.365 60.2498 249.183 60.7648 249.183 61.3945V68H247.172V61.1112C247.172 60.5489 246.997 60.0968 246.646 59.755C246.295 59.4131 245.839 59.2422 245.276 59.2422C244.894 59.2422 244.541 59.3434 244.217 59.5458C243.898 59.7437 243.639 60.0204 243.441 60.3757C243.248 60.7311 243.151 61.1426 243.151 61.6104V68H241.134Z" fill="#9A9292"/>
<path d="M144.981 71.7784H256.564V73.0739H144.981V71.7784Z" fill="#9A9292"/>
<a href="mailto:fazzzil72@gmail.com">
<rect fill="black" fill-opacity="0" x="75.9814" y="-2.06859" width="111.583" height="22.9943"/>
</a>
</svg>
