<svg xmlns="http://www.w3.org/2000/svg" width="65" height="65" viewBox="0 0 65 65" fill="none">
  <path d="M32.5 65C41.1195 65 49.386 61.5759 55.481 55.481C61.5759 49.386 65 41.1195 65 32.5C65 23.8805 61.5759 15.614 55.481 9.51903C49.386 3.4241 41.1195 0 32.5 0C23.8805 0 15.614 3.4241 9.51903 9.51903C3.4241 15.614 0 23.8805 0 32.5C0 41.1195 3.4241 49.386 9.51903 55.481C15.614 61.5759 23.8805 65 32.5 65ZM29.4531 43.6719V35.5469H21.3281C19.6396 35.5469 18.2812 34.1885 18.2812 32.5C18.2812 30.8115 19.6396 29.4531 21.3281 29.4531H29.4531V21.3281C29.4531 19.6396 30.8115 18.2812 32.5 18.2812C34.1885 18.2812 35.5469 19.6396 35.5469 21.3281V29.4531H43.6719C45.3604 29.4531 46.7188 30.8115 46.7188 32.5C46.7188 34.1885 45.3604 35.5469 43.6719 35.5469H35.5469V43.6719C35.5469 45.3604 34.1885 46.7188 32.5 46.7188C30.8115 46.7188 29.4531 45.3604 29.4531 43.6719Z" fill="#5187F2"/>
</svg>