<svg width="22" height="25" viewBox="0 0 22 25" fill="none" xmlns="http://www.w3.org/2000/svg">
<g clip-path="url(#clip0_27_2)">
<path d="M10.9998 0C10.1306 0 9.4284 0.698242 9.4284 1.5625V2.5C5.84358 3.22266 3.14269 6.37695 3.14269 10.1562V11.0742C3.14269 13.3691 2.29313 15.5859 0.760991 17.3047L0.397598 17.71C-0.0149016 18.1689 -0.113116 18.8281 0.137331 19.3896C0.387777 19.9512 0.952509 20.3125 1.57126 20.3125H20.4284C21.0472 20.3125 21.607 19.9512 21.8623 19.3896C22.1177 18.8281 22.0146 18.1689 21.6021 17.71L21.2387 17.3047C19.7065 15.5859 18.857 13.374 18.857 11.0742V10.1562C18.857 6.37695 16.1561 3.22266 12.5713 2.5V1.5625C12.5713 0.698242 11.869 0 10.9998 0ZM13.2244 24.0869C13.8137 23.501 14.1427 22.7051 14.1427 21.875H10.9998H7.85697C7.85697 22.7051 8.18599 23.501 8.77528 24.0869C9.36456 24.6729 10.165 25 10.9998 25C11.8347 25 12.6351 24.6729 13.2244 24.0869Z" fill="url(#paint0_linear_27_2)"/>
</g>
<defs>
<linearGradient id="paint0_linear_27_2" x1="11.0009" y1="0" x2="11.0009" y2="25" gradientUnits="userSpaceOnUse">
<stop stop-color="#62C472"/>
<stop offset="1" stop-color="#168470" stop-opacity="0"/>
</linearGradient>
<clipPath id="clip0_27_2">
<rect width="22" height="25" fill="white"/>
</clipPath>
</defs>
</svg>
