<svg width="15" height="20" viewBox="0 0 15 20" fill="none" xmlns="http://www.w3.org/2000/svg">
<path d="M0 3.75C0 3.05859 0.478795 2.5 1.07143 2.5H13.9286C14.5212 2.5 15 3.05859 15 3.75C15 4.44141 14.5212 5 13.9286 5H1.07143C0.478795 5 0 4.44141 0 3.75ZM0 10C0 9.30859 0.478795 8.75 1.07143 8.75H13.9286C14.5212 8.75 15 9.30859 15 10C15 10.6914 14.5212 11.25 13.9286 11.25H1.07143C0.478795 11.25 0 10.6914 0 10ZM15 16.25C15 16.9414 14.5212 17.5 13.9286 17.5H1.07143C0.478795 17.5 0 16.9414 0 16.25C0 15.5586 0.478795 15 1.07143 15H13.9286C14.5212 15 15 15.5586 15 16.25Z" fill="black"/>
</svg>
