<svg width="314" height="386" viewBox="0 0 314 386" fill="none" xmlns="http://www.w3.org/2000/svg">
<g clip-path="url(#clip0_292_8)">
<path d="M7.15588 108.367C11.0856 105.346 16.1433 112.004 13.392 116.149C10.6109 120.339 4.5307 119.151 2.43706 114.873C-0.234257 109.414 2.42591 102.921 6.73098 99.7516C11.6214 96.1516 17.6149 95.9491 23.2617 96.2864C28.9651 96.6272 34.5308 97.0795 40.2128 96.1606C45.0226 95.3692 49.7221 93.8878 54.1966 91.7528C63.3964 87.4092 71.4744 80.5312 77.6853 71.7534C80.5835 67.6207 83.2921 62.9759 84.9511 58.0286C86.229 54.2178 86.8344 49.2063 85.0237 45.4762C84.6299 44.637 84.0747 43.9069 83.3985 43.3389C82.7223 42.7709 81.9421 42.3792 81.1145 42.1924C80.2869 42.0055 79.4326 42.0282 78.6137 42.2586C77.7948 42.4891 77.0319 42.9216 76.3803 43.5248C73.3627 46.3034 72.5477 51.4629 74.8549 55.0581C77.3307 58.916 82.0025 60.2384 86.0247 59.536C91.6148 58.5598 96.1416 54.1242 100.421 50.3055L132.116 22.0241C137.342 17.3606 142.515 12.6068 147.809 8.04022C152.113 4.32664 157.366 0.72589 162.973 2.70941C165.233 3.50898 167.511 5.40249 168.076 8.12292C168.287 9.36862 168.192 10.6555 167.8 11.8447C167.408 13.0339 166.735 14.0805 165.854 14.8715C165.451 15.256 164.981 15.5421 164.475 15.7118C163.968 15.8815 163.436 15.9309 162.911 15.857C162.387 15.7831 161.882 15.5875 161.428 15.2826C160.975 14.9776 160.583 14.57 160.277 14.0856C159.095 12.2335 158.998 9.59279 159.679 7.49996C161.497 1.90684 168.171 1.32166 172.624 1.77655C177.879 2.37502 182.955 4.25268 187.499 7.27898C196.91 13.4228 203.87 23.4173 207.953 34.6528C212.476 47.1018 213.87 60.8773 213.685 74.2414C213.648 76.9671 213.48 79.9821 212.115 82.3323C210.778 84.634 208.445 85.3307 206.353 83.7915C205.672 83.2901 204.796 82.3136 204.973 81.2835C205.196 79.9903 207.49 79.9804 208.408 80.0299C210.922 80.1652 213.298 81.5894 215.099 83.5095C219.378 88.0726 219.711 95.0545 219.153 101.263C218.54 108.078 216.793 114.856 217.487 121.755C218.624 133.058 226.876 139.339 234.981 144.535C239.131 147.197 243.373 149.741 247.105 153.126C250.91 156.59 254.24 160.664 256.989 165.217C262.423 174.2 265.626 184.65 266.268 195.488C266.591 200.903 266.211 206.343 265.138 211.635C264.072 216.811 262.393 223.336 257.968 226.116C256.913 226.794 255.699 227.092 254.489 226.97C253.279 226.848 252.132 226.312 251.202 225.434C249.409 223.817 248.533 220.946 250.385 218.926C251.919 217.252 254.375 217.604 256.227 218.285C258.456 219.104 260.191 220.633 261.852 222.44C265.02 225.883 268.728 230.11 273.546 229.01C274.437 228.807 274.06 227.276 273.171 227.479C267.353 228.807 263.846 221.208 259.556 218.282C256.45 216.164 251.145 214.589 248.718 218.72C246.099 223.178 250.31 227.987 254.224 228.562C259.312 229.308 262.84 223.716 264.548 219.1C268.511 208.396 268.634 195.844 266.21 184.697C263.787 173.377 258.549 163.065 251.107 154.966C247.351 150.942 243.044 147.857 238.552 144.986C234.017 142.087 229.29 139.307 225.41 135.328C223.261 133.198 221.551 130.566 220.4 127.617C219.248 124.668 218.683 121.472 218.744 118.252C218.785 110.835 220.907 103.638 220.775 96.2069C220.665 90.0458 218.802 84.0296 214.033 80.561C212.068 79.0626 209.722 78.3264 207.35 78.4643C206.385 78.5534 205.03 78.736 204.236 79.4148C203.596 79.9614 203.475 81.241 203.604 82.0682C203.91 84.0329 205.564 85.3974 207.17 85.9443C208.146 86.297 209.194 86.3111 210.177 85.985C211.161 85.6588 212.034 85.0073 212.684 84.1155C214.228 82.111 214.764 79.4377 214.983 76.8636C215.279 73.3762 215.115 69.7939 214.978 66.3008C214.423 52.1048 211.927 37.569 205.363 25.2398C199.783 14.7596 191.105 5.97221 180.7 2.08454C175.797 0.2526 169.981 -0.845283 164.922 0.82083C160.569 2.25432 157.234 6.28069 157.952 11.6134C158.561 16.1275 162.722 19.2498 166.39 16.4006C167.255 15.7282 167.981 14.854 168.518 13.8375C169.055 12.821 169.391 11.6862 169.502 10.5106C169.613 9.33494 169.497 8.1462 169.162 7.02551C168.827 5.90482 168.281 4.87858 167.561 4.01686C164.016 -0.155926 158.235 -0.125896 153.811 1.99474C151.147 3.2718 148.788 5.18519 146.513 7.17291C143.614 9.70665 140.755 12.3011 137.878 14.8679L103.226 45.7889C100.49 48.2294 97.7994 50.759 94.9731 53.0659C92.3357 55.2186 89.426 57.2126 86.1792 57.9037C81.6073 58.877 74.3699 56.3245 74.9244 49.8071C75.1397 47.276 76.6313 44.4804 78.9113 43.7546C81.1463 43.0431 83.2563 44.659 84.0872 46.9466C85.9189 51.9897 83.7678 57.7585 81.6284 62.1857C76.331 73.1475 67.9749 82.0747 58.1842 87.8836C53.2835 90.7979 48.0307 92.893 42.5917 94.1026C36.4823 95.4517 30.4874 95.1877 24.3104 94.7666C18.3226 94.3584 12.0348 94.4002 6.69789 97.9072C2.32172 100.783 -0.597623 105.998 0.103863 111.809C0.713025 116.855 4.31405 120.712 8.95841 120.286C12.8567 119.929 16.7732 116.187 15.3901 111.435C14.2448 107.5 9.82402 104.397 6.44273 106.996C5.69675 107.569 6.40276 108.946 7.15588 108.367Z" fill="#3F3D56"/>
<path d="M306.567 223.013H272.336C271.801 223.013 271.289 223.253 270.911 223.678C270.532 224.103 270.32 224.679 270.319 225.28V249.233C270.32 249.834 270.532 250.41 270.911 250.835C271.289 251.26 271.801 251.5 272.336 251.5H306.567C307.102 251.5 307.615 251.26 307.993 250.835C308.371 250.41 308.584 249.834 308.584 249.233V225.28C308.584 224.679 308.371 224.103 307.993 223.678C307.615 223.253 307.102 223.013 306.567 223.013Z" fill="#F2F2F2"/>
<path d="M306.567 223.013H272.336C271.801 223.013 271.289 223.253 270.911 223.678C270.532 224.103 270.32 224.679 270.319 225.28V249.233C270.32 249.834 270.532 250.41 270.911 250.835C271.289 251.26 271.801 251.5 272.336 251.5H306.567C307.102 251.5 307.615 251.26 307.993 250.835C308.371 250.41 308.584 249.834 308.584 249.233V225.28C308.584 224.679 308.371 224.103 307.993 223.678C307.615 223.253 307.102 223.013 306.567 223.013ZM307.229 240.219C307.221 242.657 306.363 244.995 304.839 246.731C303.315 248.466 301.246 249.461 299.076 249.502C295.603 249.553 300.998 249.573 296.809 249.573C287.23 249.573 277.242 249.47 273.515 249.403C273.024 249.392 272.557 249.166 272.214 248.773C271.87 248.379 271.676 247.851 271.674 247.3V225.282C271.674 225.084 271.744 224.895 271.868 224.755C271.992 224.616 272.161 224.537 272.336 224.536H306.566C306.741 224.536 306.91 224.615 307.034 224.754C307.158 224.893 307.229 225.082 307.229 225.28L307.229 240.219Z" fill="#E6E6E6"/>
<path d="M302.353 209.22H276.273C276.042 209.22 275.817 209.301 275.629 209.45C275.44 209.6 275.297 209.811 275.219 210.055L271.191 222.756C271.131 222.946 271.113 223.149 271.137 223.348C271.161 223.547 271.227 223.737 271.33 223.902C271.434 224.067 271.57 224.201 271.729 224.294C271.888 224.387 272.064 224.435 272.243 224.435L307.222 224.505H307.223C307.408 224.505 307.59 224.454 307.753 224.355C307.916 224.256 308.055 224.114 308.157 223.94C308.259 223.766 308.321 223.567 308.337 223.36C308.354 223.153 308.324 222.944 308.251 222.753L303.382 209.982C303.295 209.756 303.152 209.563 302.969 209.427C302.787 209.292 302.572 209.22 302.353 209.22Z" fill="#E6E6E6"/>
<path d="M308.342 223.029C308.342 223.199 308.311 223.367 308.251 223.524L303.382 233.354C303.295 233.58 303.152 233.773 302.969 233.908C302.786 234.043 302.572 234.115 302.354 234.116H276.273C276.043 234.115 275.818 234.035 275.629 233.886C275.44 233.736 275.297 233.525 275.219 233.281L271.192 223.521C271.142 223.365 271.121 223.2 271.128 223.035C271.135 222.87 271.172 222.709 271.235 222.56C271.298 222.41 271.386 222.277 271.495 222.166C271.604 222.055 271.732 221.97 271.87 221.915C271.99 221.866 272.116 221.841 272.243 221.841L276.516 221.832L278.26 221.829L301.207 221.783L302.952 221.78L307.222 221.771H307.223C307.52 221.771 307.804 221.903 308.014 222.139C308.224 222.375 308.342 222.695 308.342 223.029Z" fill="#E6E6E6"/>
<path d="M274.902 240.98C275.42 240.98 282.521 241.468 282.521 242.049C282.521 242.631 275.42 243.085 274.902 243.085C274.654 243.085 274.416 242.974 274.24 242.777C274.065 242.58 273.966 242.312 273.966 242.033C273.966 241.754 274.065 241.486 274.24 241.289C274.416 241.091 274.654 240.98 274.902 240.98Z" fill="#E6E6E6"/>
<path d="M300.729 201.493H278.739C278.15 201.494 277.585 201.758 277.168 202.226C276.751 202.694 276.517 203.329 276.516 203.992V234.116H302.353C302.566 234.116 302.774 234.048 302.952 233.92V203.992C302.952 203.329 302.717 202.694 302.3 202.226C301.884 201.758 301.319 201.494 300.729 201.493Z" fill="#F2F2F2"/>
<path d="M292.336 203.519H280.285C279.748 203.52 279.233 203.759 278.854 204.186C278.474 204.612 278.261 205.19 278.26 205.793V234.116H301.207V213.49C301.205 210.846 300.269 208.312 298.606 206.443C296.943 204.573 294.688 203.522 292.336 203.519Z" fill="white"/>
<path d="M297.298 231.6H282.169C282.039 231.6 281.913 231.659 281.821 231.763C281.728 231.867 281.676 232.008 281.676 232.155C281.676 232.302 281.728 232.442 281.821 232.546C281.913 232.65 282.039 232.709 282.169 232.709H297.298C297.429 232.709 297.554 232.65 297.647 232.546C297.739 232.442 297.791 232.302 297.791 232.155C297.791 232.008 297.739 231.867 297.647 231.763C297.554 231.659 297.429 231.6 297.298 231.6Z" fill="#E4E4E4"/>
<path d="M297.298 229.408H282.169C282.038 229.408 281.913 229.467 281.82 229.571C281.728 229.675 281.676 229.816 281.676 229.963C281.676 230.11 281.728 230.251 281.82 230.355C281.913 230.46 282.038 230.518 282.169 230.518H297.298C297.363 230.518 297.427 230.504 297.487 230.476C297.547 230.448 297.601 230.407 297.647 230.355C297.693 230.304 297.729 230.243 297.754 230.175C297.779 230.108 297.792 230.036 297.792 229.963C297.792 229.89 297.779 229.818 297.754 229.751C297.729 229.684 297.693 229.622 297.647 229.571C297.601 229.519 297.547 229.479 297.487 229.451C297.427 229.423 297.363 229.408 297.298 229.408Z" fill="#E4E4E4"/>
<path d="M288.727 227.218H282.169C282.039 227.218 281.913 227.276 281.821 227.38C281.728 227.484 281.676 227.625 281.676 227.772C281.676 227.919 281.728 228.06 281.821 228.164C281.913 228.268 282.039 228.326 282.169 228.326H288.727C288.858 228.326 288.984 228.268 289.076 228.164C289.168 228.06 289.22 227.919 289.22 227.772C289.22 227.625 289.168 227.484 289.076 227.38C288.984 227.276 288.858 227.218 288.727 227.218Z" fill="#E4E4E4"/>
<path d="M297.298 222.628H282.169C282.039 222.629 281.914 222.687 281.821 222.791C281.729 222.895 281.677 223.036 281.677 223.183C281.677 223.33 281.729 223.471 281.821 223.575C281.914 223.679 282.039 223.737 282.169 223.738H297.298C297.363 223.738 297.427 223.724 297.487 223.696C297.547 223.668 297.602 223.627 297.648 223.576C297.694 223.524 297.73 223.463 297.755 223.396C297.78 223.328 297.793 223.256 297.793 223.183C297.793 223.11 297.78 223.038 297.755 222.97C297.73 222.903 297.694 222.842 297.648 222.79C297.602 222.739 297.547 222.698 297.487 222.67C297.427 222.642 297.363 222.628 297.298 222.628Z" fill="#E4E4E4"/>
<path d="M297.298 220.437H282.169C282.039 220.437 281.913 220.496 281.821 220.6C281.728 220.704 281.676 220.845 281.676 220.992C281.676 221.139 281.728 221.279 281.821 221.383C281.913 221.487 282.039 221.546 282.169 221.546H297.298C297.429 221.546 297.554 221.487 297.647 221.383C297.739 221.279 297.791 221.139 297.791 220.992C297.791 220.845 297.739 220.704 297.647 220.6C297.554 220.496 297.429 220.437 297.298 220.437Z" fill="#E4E4E4"/>
<path d="M288.727 218.246H282.169C282.038 218.246 281.913 218.304 281.82 218.408C281.728 218.512 281.676 218.653 281.676 218.8C281.676 218.947 281.728 219.089 281.82 219.193C281.913 219.297 282.038 219.355 282.169 219.355H288.727C288.858 219.355 288.984 219.297 289.076 219.193C289.169 219.089 289.221 218.947 289.221 218.8C289.221 218.653 289.169 218.512 289.076 218.408C288.984 218.304 288.858 218.246 288.727 218.246Z" fill="#E4E4E4"/>
<path d="M297.298 213.656H282.169C282.039 213.656 281.914 213.715 281.821 213.819C281.729 213.923 281.677 214.064 281.677 214.211C281.677 214.358 281.729 214.498 281.821 214.602C281.914 214.706 282.039 214.765 282.169 214.766H297.298C297.363 214.766 297.427 214.752 297.487 214.724C297.547 214.696 297.602 214.655 297.648 214.604C297.694 214.552 297.73 214.491 297.755 214.423C297.78 214.356 297.793 214.284 297.793 214.211C297.793 214.138 297.78 214.065 297.755 213.998C297.73 213.931 297.694 213.869 297.648 213.818C297.602 213.766 297.547 213.726 297.487 213.698C297.427 213.67 297.363 213.656 297.298 213.656Z" fill="#E4E4E4"/>
<path d="M297.298 211.465H282.169C282.039 211.466 281.914 211.524 281.821 211.628C281.729 211.732 281.677 211.873 281.677 212.02C281.677 212.167 281.729 212.308 281.821 212.412C281.914 212.516 282.039 212.574 282.169 212.575H297.298C297.363 212.575 297.427 212.561 297.487 212.533C297.547 212.505 297.602 212.464 297.648 212.413C297.694 212.361 297.73 212.3 297.755 212.233C297.78 212.165 297.793 212.093 297.793 212.02C297.793 211.947 297.78 211.875 297.755 211.807C297.73 211.74 297.694 211.679 297.648 211.627C297.602 211.576 297.547 211.535 297.487 211.507C297.427 211.479 297.363 211.465 297.298 211.465Z" fill="#E4E4E4"/>
<path d="M288.727 209.273H282.169C282.038 209.273 281.913 209.332 281.82 209.436C281.728 209.54 281.676 209.681 281.676 209.828C281.676 209.975 281.728 210.116 281.82 210.22C281.913 210.324 282.038 210.383 282.169 210.383H288.727C288.792 210.383 288.856 210.369 288.916 210.341C288.976 210.313 289.031 210.272 289.076 210.22C289.122 210.169 289.159 210.108 289.183 210.04C289.208 209.973 289.221 209.901 289.221 209.828C289.221 209.755 289.208 209.683 289.183 209.616C289.159 209.549 289.122 209.487 289.076 209.436C289.031 209.384 288.976 209.344 288.916 209.316C288.856 209.288 288.792 209.273 288.727 209.273Z" fill="#E4E4E4"/>
<path d="M125.801 105.4C133.864 105.4 140.4 98.0539 140.4 88.9924C140.4 79.931 133.864 72.5852 125.801 72.5852C117.739 72.5852 111.203 79.931 111.203 88.9924C111.203 98.0539 117.739 105.4 125.801 105.4Z" fill="#FFB6B6"/>
<path d="M142.465 79.598C140.93 76.928 138.048 75.1485 135.255 75.6485C134.995 73.6448 134.25 71.7597 133.103 70.1984C131.956 68.6371 130.45 67.4595 128.748 66.7938C127.047 66.1281 125.215 65.9998 123.453 66.4229C121.691 66.846 120.067 67.8043 118.756 69.1934C118.325 68.8522 117.822 68.642 117.298 68.583C116.773 68.524 116.244 68.6182 115.761 68.8566C114.8 69.3479 113.963 70.1025 113.329 71.0513C111.726 73.298 110.695 75.9912 110.346 78.8442C109.996 81.6972 110.342 84.6032 111.346 87.2529C111.004 85.858 112.248 84.5456 113.505 84.2326C114.762 83.9196 116.08 84.2157 117.354 84.0119C118.988 83.7507 120.456 82.6857 122.092 82.446C123.467 82.2446 124.849 82.6408 126.19 83.0379C127.531 83.435 128.91 83.84 130.287 83.6563C131.664 83.4725 133.437 89.3372 133.414 93.4679C133.409 94.2507 133.553 95.2558 134.233 95.4218C135.072 95.6264 135.557 94.3261 136.355 93.9718C136.723 93.8534 137.117 93.9 137.455 94.1018C137.793 94.3037 138.047 94.645 138.166 95.0539C138.266 95.4695 138.277 95.9062 138.197 96.3274C138.117 96.7487 137.949 97.1425 137.706 97.4759C137.216 98.1369 136.633 98.7045 135.982 99.1568L136.311 99.4639C136.857 100.276 137.991 100.311 138.779 99.8086C139.532 99.2351 140.142 98.4544 140.551 97.5408C142.008 94.8161 143.287 91.9131 143.801 88.7869C144.316 85.6607 144.001 82.2681 142.465 79.598Z" fill="#2F2E41"/>
<path d="M142.926 376.312L135.042 376.31L131.291 342.132L142.927 342.133L142.926 376.312Z" fill="#FFB6B6"/>
<path d="M143.203 385.555L118.959 385.554V385.209C118.959 382.397 119.953 379.699 121.723 377.71C123.493 375.721 125.893 374.604 128.396 374.604H128.396L132.825 370.828L141.088 374.604L143.204 374.604L143.203 385.555Z" fill="#2F2E41"/>
<path d="M157.143 360.666L150.958 366.16L129.156 341.963L138.284 333.852L157.143 360.666Z" fill="#FFB6B6"/>
<path d="M162.461 367.723L143.442 384.622L143.252 384.351C141.7 382.144 140.991 379.335 141.282 376.542C141.573 373.748 142.839 371.198 144.802 369.454L144.802 369.453L146.193 363.404L154.759 360.608L156.419 359.132L162.461 367.723Z" fill="#2F2E41"/>
<path d="M102.157 216.103L101.676 226.076L104.017 229.255L103.748 239.231L106.02 245.76L107.617 266.534L129.99 353.211L150.151 345.943L128.136 265.144L154.623 264.4L155.52 218.841L150.826 208.642L102.157 216.103Z" fill="#2F2E41"/>
<path d="M152.076 257.532L154.623 264.4L144.774 361.116L130.954 362.25L124.986 254.125L152.076 257.532Z" fill="#2F2E41"/>
<path d="M138.532 115.007L133.994 107.947L119.34 108.607L119.059 114.043L109.325 217.377L118.885 217.136L130.751 220.25L153.575 211.272L138.532 115.007Z" fill="#6C63FF"/>
<path d="M113.084 219.288H90.6117L96.4747 172.776L98.852 153.923C98.852 153.923 97.1692 140.448 96.3545 133.408C96.2786 132.657 96.3944 131.897 96.6884 131.217C96.955 130.58 97.3029 129.99 97.7212 129.466C100.455 125.923 106.603 122.851 110.458 121.17C112.443 120.309 113.823 119.814 113.823 119.814L119.059 114.045C126.573 124.597 113.084 219.288 113.084 219.288Z" fill="#3F3D56"/>
<path d="M135.685 111.166L142.815 115.757C142.815 115.757 163.928 119.655 165.981 128.567L158.209 154.935V210.349L139.368 218.841C139.368 218.841 123.116 129.315 135.685 111.166Z" fill="#3F3D56"/>
<path opacity="0.4" d="M128.469 251.887L124.986 297.232L130.916 350.006" fill="black"/>
<path d="M44.3725 167.412C44.9532 166.943 45.6183 166.623 46.3211 166.474C47.0238 166.325 47.7471 166.351 48.4399 166.551C49.1327 166.75 49.7782 167.117 50.3309 167.627C50.8837 168.137 51.3302 168.777 51.6391 169.502L68.9121 167.307L64.8181 176.357L49.043 177.054C47.925 177.557 46.682 177.581 45.5493 177.122C44.4166 176.663 43.473 175.753 42.8973 174.565C42.3215 173.376 42.1537 171.992 42.4256 170.674C42.6975 169.355 43.3902 168.195 44.3725 167.412Z" fill="#FFB6B6"/>
<path d="M116.869 127.786L121.813 131.104L94.1288 174.937L60.3388 178.163L58.9933 167.321L83.8895 158.926L96.1953 132.117L116.869 127.786Z" fill="#3F3D56"/>
<path d="M217.623 163.707C217.042 163.238 216.377 162.918 215.674 162.769C214.971 162.62 214.248 162.646 213.555 162.845C212.862 163.045 212.217 163.412 211.664 163.922C211.111 164.432 210.665 165.072 210.356 165.797L193.083 163.602L197.177 172.652L212.952 173.349C214.07 173.852 215.313 173.876 216.446 173.417C217.579 172.958 218.522 172.048 219.098 170.86C219.674 169.671 219.841 168.287 219.569 166.968C219.298 165.65 218.605 164.49 217.623 163.707Z" fill="#FFB6B6"/>
<path d="M145.125 124.08L140.183 127.399L167.866 171.232L201.656 174.458L203.002 163.615L178.106 155.221L165.8 128.412L145.125 124.08Z" fill="#3F3D56"/>
<path d="M77.8201 113.766V113.187H69.1795V99.6732H68.6654V113.187H58.7627V102.751C58.5895 102.904 58.4186 103.061 58.2499 103.223V113.187H51.7093C51.6366 113.379 51.5666 113.572 51.5005 113.766H58.2499V125.122H49.8696C49.8776 125.317 49.8895 125.508 49.904 125.701H58.2499V134.761H51.9974C52.0741 134.955 52.1547 135.147 52.2393 135.337H58.2499V142.952H58.7627V135.337H68.6654V142.952H69.1795V135.337H77.8201V134.761H69.1795C69.1793 133.571 69.3876 132.393 69.7926 131.293C70.1976 130.194 70.7913 129.195 71.5398 128.354C72.2884 127.513 73.177 126.846 74.155 126.39C75.1331 125.935 76.1813 125.701 77.2399 125.701H77.8201V125.122H69.1795V113.766H77.8201ZM68.6654 134.761H58.7627V125.701H68.6654V134.761ZM68.6654 125.122H58.7627V124.895C58.7627 123.433 59.019 121.986 59.5167 120.636C60.0144 119.286 60.7438 118.059 61.6634 117.026C62.5829 115.992 63.6746 115.172 64.876 114.613C66.0774 114.054 67.365 113.766 68.6654 113.766V125.122Z" fill="#E6E6E6"/>
<path d="M152.892 33.5876C152.824 33.6189 152.748 33.6188 152.681 33.5874C152.614 33.556 152.56 33.4959 152.532 33.4201L151.817 31.477C151.789 31.4012 151.789 31.316 151.817 31.2403C151.845 31.1645 151.898 31.1043 151.966 31.0729C152.033 31.0416 152.109 31.0416 152.176 31.073C152.244 31.1044 152.297 31.1647 152.325 31.2405L153.041 33.1836C153.068 33.2594 153.068 33.3445 153.04 33.4203C153.013 33.496 152.959 33.5562 152.892 33.5876Z" fill="#3F3D56"/>
<path d="M167.323 19.1923L165.188 13.3921C165.025 12.9512 164.787 12.5506 164.487 12.2131C164.187 11.8757 163.831 11.6079 163.439 11.4252C163.047 11.2425 162.626 11.1484 162.202 11.1482C161.777 11.148 161.357 11.2419 160.965 11.4243L150.031 16.5096C149.639 16.6921 149.282 16.9595 148.982 17.2968C148.682 17.634 148.444 18.0345 148.281 18.4752C148.119 18.9159 148.035 19.3883 148.035 19.8654C148.035 20.3425 148.118 20.815 148.28 21.2559L159.997 53.0763C160.159 53.5171 160.397 53.9177 160.697 54.2552C160.997 54.5927 161.353 54.8604 161.745 55.0431C162.138 55.2259 162.558 55.32 162.982 55.3201C163.407 55.3203 163.827 55.2265 164.22 55.044L175.153 49.9587C175.545 49.7763 175.902 49.5088 176.202 49.1715C176.502 48.8343 176.741 48.4339 176.903 47.9931C177.066 47.5524 177.149 47.08 177.15 46.6029C177.15 46.1258 177.066 45.6533 176.904 45.2125L168.844 23.321C168.868 23.3095 168.891 23.2926 168.91 23.2713C168.929 23.2501 168.944 23.2248 168.954 23.197C168.964 23.1692 168.969 23.1394 168.969 23.1093C168.969 23.0792 168.964 23.0494 168.954 23.0216L167.59 19.3164C167.579 19.2886 167.564 19.2633 167.546 19.242C167.527 19.2208 167.504 19.2039 167.479 19.1923C167.455 19.1808 167.428 19.1749 167.401 19.1749C167.375 19.1749 167.348 19.1808 167.323 19.1923Z" fill="#3F3D56"/>
<path d="M164.56 13.7101L176.26 45.4847C176.503 46.1447 176.505 46.8859 176.264 47.5472C176.024 48.2086 175.561 48.7367 174.977 49.0168C174.969 49.0219 174.961 49.0263 174.953 49.0298L163.966 54.1398C163.375 54.415 162.71 54.4146 162.118 54.139C161.527 53.8633 161.057 53.3348 160.812 52.6698L149.112 20.8951C148.991 20.5658 148.929 20.2129 148.929 19.8566C148.929 19.5003 148.992 19.1475 149.113 18.8184C149.235 18.4893 149.413 18.1904 149.637 17.9386C149.862 17.6868 150.128 17.4872 150.421 17.3511L151.753 16.7314C151.754 16.943 151.801 17.1511 151.891 17.3374C151.98 17.5236 152.109 17.6823 152.266 17.7994C152.422 17.9165 152.603 17.9884 152.79 18.0088C152.977 18.0292 153.166 17.9974 153.34 17.9163L159.604 15.0029C159.741 14.9392 159.865 14.8456 159.969 14.7275C160.076 14.6088 160.162 14.4674 160.22 14.3114C160.279 14.1555 160.31 13.9881 160.311 13.8188C160.312 13.6496 160.283 13.4817 160.226 13.325C160.169 13.1683 160.085 13.0258 159.979 12.9056L161.408 12.2411C161.999 11.9661 162.663 11.9664 163.255 12.2419C163.846 12.5173 164.315 13.0455 164.56 13.7101Z" fill="#6C63FF"/>
<path d="M151.671 30.2728C151.604 30.3041 151.528 30.304 151.461 30.2726C151.393 30.2412 151.34 30.181 151.312 30.1053L150.596 28.1621C150.568 28.0864 150.568 28.0012 150.596 27.9254C150.624 27.8497 150.678 27.7895 150.745 27.7581C150.813 27.7268 150.888 27.7268 150.956 27.7582C151.023 27.7896 151.077 27.8498 151.105 27.9256L151.82 29.8688C151.848 29.9446 151.848 30.0297 151.82 30.1055C151.792 30.1812 151.738 30.2414 151.671 30.2728Z" fill="#3F3D56"/>
<path d="M150.231 26.5244C150.164 26.5557 150.088 26.5556 150.021 26.5242C149.954 26.4928 149.9 26.4326 149.872 26.3569L149.157 24.4137C149.143 24.3761 149.135 24.3359 149.135 24.2952C149.135 24.2545 149.142 24.2141 149.156 24.1765C149.17 24.1389 149.19 24.1047 149.216 24.0759C149.241 24.0471 149.272 24.0243 149.305 24.0087C149.339 23.9932 149.375 23.9852 149.411 23.9852C149.447 23.9853 149.483 23.9934 149.516 24.009C149.55 24.0247 149.58 24.0476 149.606 24.0764C149.631 24.1053 149.651 24.1395 149.665 24.1772L150.38 26.1204C150.408 26.1962 150.408 26.2813 150.38 26.357C150.352 26.4328 150.299 26.4929 150.231 26.5244Z" fill="#3F3D56"/>
<path d="M154.259 15.949C154.231 15.8732 154.231 15.788 154.259 15.7123C154.287 15.6366 154.341 15.5764 154.408 15.5449L156.137 14.7408C156.204 14.7094 156.28 14.7095 156.347 14.7409C156.415 14.7723 156.468 14.8325 156.496 14.9083C156.524 14.9841 156.524 15.0692 156.496 15.145C156.468 15.2208 156.415 15.281 156.347 15.3123L154.618 16.1165C154.551 16.1477 154.475 16.1476 154.408 16.1162C154.34 16.0848 154.287 16.0247 154.259 15.949Z" fill="white"/>
<path d="M157.208 14.8865C157.36 14.8865 157.483 14.748 157.483 14.5772C157.483 14.4064 157.36 14.2679 157.208 14.2679C157.056 14.2679 156.933 14.4064 156.933 14.5772C156.933 14.748 157.056 14.8865 157.208 14.8865Z" fill="white"/>
<path d="M216.886 152.112C216.852 152.112 216.817 152.111 216.782 152.11C216.373 152.093 215.974 151.966 215.619 151.739C215.264 151.512 214.962 151.191 214.741 150.805C213.081 148.017 211.044 145.537 208.703 143.455C207.286 142.182 205.806 140.998 204.374 139.853C200.68 136.902 197.201 134.121 195.27 130.28C191.06 121.903 196.018 110.235 203.101 105.003C211.046 99.134 221.496 98.2135 231.605 98.0929C232.656 98.0804 233.707 98.0742 234.759 98.0742C252.974 98.0821 271.15 99.95 289.064 103.655C295.021 104.89 301.257 106.403 306.267 110.076C311.248 113.726 314.276 119.475 313.98 124.721C313.549 132.38 306.325 138.103 299.747 139.6C293.477 141.025 286.963 140.062 280.068 139.042C278.545 138.817 276.971 138.584 275.415 138.382C258.498 136.184 226.72 142.958 225.375 143.247L224.041 143.534L218.866 151.019C218.633 151.361 218.334 151.637 217.99 151.826C217.647 152.016 217.269 152.114 216.886 152.112Z" fill="#6C63FF"/>
<path d="M292.217 114.748H220.717C220.305 114.748 219.909 114.564 219.617 114.236C219.326 113.908 219.162 113.464 219.162 113C219.162 112.536 219.326 112.091 219.617 111.763C219.909 111.436 220.305 111.251 220.717 111.251H292.217C292.63 111.251 293.026 111.436 293.317 111.763C293.609 112.091 293.773 112.536 293.773 113C293.773 113.464 293.609 113.908 293.317 114.236C293.026 114.564 292.63 114.748 292.217 114.748Z" fill="white"/>
<path d="M292.217 125.481H220.717C220.305 125.48 219.91 125.296 219.618 124.969C219.327 124.641 219.163 124.197 219.162 123.734C219.162 123.271 219.325 122.826 219.616 122.498C219.907 122.17 220.302 121.985 220.714 121.984H292.217C292.629 121.984 293.024 122.169 293.316 122.497C293.607 122.825 293.77 123.269 293.77 123.732C293.77 124.195 293.607 124.64 293.316 124.967C293.024 125.295 292.629 125.48 292.217 125.481Z" fill="white"/>
<path d="M229.05 136.213H220.717C220.305 136.212 219.91 136.027 219.619 135.699C219.328 135.372 219.164 134.927 219.164 134.464C219.164 134.001 219.328 133.557 219.619 133.229C219.91 132.901 220.305 132.716 220.717 132.716H229.05C229.462 132.716 229.857 132.901 230.148 133.229C230.439 133.557 230.603 134.001 230.603 134.464C230.603 134.927 230.439 135.372 230.148 135.699C229.857 136.027 229.462 136.212 229.05 136.213Z" fill="white"/>
<path d="M217.769 164.302C221.946 164.302 225.331 160.497 225.331 155.803C225.331 151.109 221.946 147.304 217.769 147.304C213.593 147.304 210.208 151.109 210.208 155.803C210.208 160.497 213.593 164.302 217.769 164.302Z" fill="white"/>
<path d="M217.77 164.406C216.256 164.406 214.776 163.901 213.517 162.956C212.258 162.011 211.277 160.667 210.698 159.095C210.119 157.523 209.967 155.793 210.262 154.125C210.558 152.456 211.287 150.923 212.357 149.72C213.428 148.517 214.791 147.697 216.276 147.366C217.761 147.034 219.3 147.204 220.699 147.855C222.097 148.506 223.293 149.609 224.134 151.023C224.975 152.438 225.424 154.101 225.424 155.803C225.421 158.084 224.614 160.27 223.179 161.883C221.744 163.496 219.799 164.403 217.77 164.406Z" fill="#3F3D56"/>
<path d="M217.203 159.2C217.187 159.2 217.171 159.199 217.155 159.198C217.012 159.19 216.873 159.148 216.747 159.074C216.62 159 216.509 158.897 216.422 158.77L215.158 156.944C215.078 156.829 215.02 156.697 214.985 156.556C214.951 156.415 214.941 156.268 214.957 156.123C214.973 155.979 215.015 155.839 215.079 155.712C215.143 155.585 215.229 155.473 215.332 155.384L215.377 155.344C215.48 155.254 215.597 155.188 215.722 155.149C215.848 155.11 215.978 155.1 216.107 155.118C216.236 155.136 216.361 155.182 216.474 155.255C216.587 155.327 216.686 155.423 216.766 155.539C216.83 155.631 216.91 155.706 217.003 155.76C217.095 155.814 217.196 155.845 217.3 155.851C217.404 155.856 217.507 155.837 217.604 155.793C217.7 155.75 217.787 155.683 217.859 155.599L220.424 152.554C220.605 152.34 220.854 152.216 221.116 152.208C221.378 152.2 221.633 152.309 221.823 152.511L221.865 152.556C221.96 152.657 222.036 152.777 222.089 152.911C222.141 153.044 222.171 153.188 222.174 153.334C222.178 153.48 222.155 153.625 222.109 153.761C222.062 153.898 221.993 154.022 221.903 154.128L217.921 158.852C217.829 158.962 217.718 159.049 217.594 159.109C217.471 159.169 217.338 159.2 217.203 159.2Z" fill="white"/>
<path d="M76.5724 45.9403L71.946 14.6711C71.853 14.0381 71.9872 13.3895 72.3192 12.8675C72.6512 12.3456 73.1538 11.993 73.7168 11.887L94.7282 7.96011C95.2914 7.85559 95.8686 8.00642 96.3329 8.37953C96.7973 8.75264 97.1111 9.31754 97.2053 9.95031L101.832 41.2195C101.925 41.8525 101.79 42.5011 101.459 43.0231C101.127 43.545 100.624 43.8976 100.061 44.0036L79.0495 47.9305C78.4863 48.035 77.9092 47.8842 77.4448 47.5111C76.9804 47.138 76.6667 46.5731 76.5724 45.9403Z" fill="#3F3D56"/>
<path d="M76.7867 36.1943L73.8125 16.0917C73.7254 15.4988 73.8511 14.8914 74.162 14.4026C74.4729 13.9138 74.9436 13.5835 75.4709 13.4843L93.5284 10.1094C94.0559 10.0115 94.5964 10.1528 95.0313 10.5022C95.4662 10.8516 95.7601 11.3807 95.8484 11.9733L99.9652 39.7986C100.052 40.3915 99.9266 40.9989 99.6157 41.4877C99.3048 41.9765 98.8341 42.3068 98.3068 42.406L87.1205 44.4966C84.771 44.9327 82.3635 44.3035 80.4262 42.747C78.4889 41.1906 77.18 38.834 76.7867 36.1943Z" fill="white"/>
<path d="M77.5662 21.1543C77.481 20.575 77.6038 19.9813 77.9077 19.5037C78.2115 19.026 78.6714 18.7033 79.1867 18.6064L91.7132 16.2652C91.9684 16.2175 92.2296 16.2268 92.4816 16.2925C92.7337 16.3582 92.9718 16.4791 93.1823 16.6482C93.3928 16.8173 93.5716 17.0314 93.7085 17.2782C93.8454 17.525 93.9377 17.7997 93.9802 18.0866C94.0226 18.3735 94.0144 18.667 93.9559 18.9503C93.8974 19.2336 93.7899 19.5012 93.6394 19.7378C93.4889 19.9744 93.2985 20.1753 93.0789 20.3292C92.8593 20.4831 92.6149 20.5868 92.3596 20.6345L79.8332 22.9756C79.3177 23.0713 78.7896 22.9333 78.3646 22.5918C77.9396 22.2504 77.6524 21.7334 77.5662 21.1543Z" fill="#6C63FF"/>
<path d="M78.5718 27.9509C78.4867 27.3716 78.6095 26.778 78.9133 26.3003C79.2171 25.8227 79.6771 25.4999 80.1923 25.403L92.7188 23.0619C93.2343 22.9655 93.7628 23.1033 94.1879 23.4449C94.6131 23.7864 94.9001 24.3038 94.9858 24.8832C95.0715 25.4626 94.9489 26.0566 94.645 26.5344C94.3411 27.0122 93.8808 27.3348 93.3652 27.4311L80.8388 29.7723C80.3233 29.868 79.7952 29.7299 79.3702 29.3885C78.9452 29.047 78.658 28.53 78.5718 27.9509Z" fill="#6C63FF"/>
<path d="M79.5773 34.7477C79.4921 34.1683 79.615 33.5747 79.9188 33.0971C80.2226 32.6194 80.6826 32.2967 81.1978 32.1997L93.7243 29.8586C93.9796 29.8109 94.2407 29.8202 94.4927 29.8859C94.7448 29.9516 94.9829 30.0725 95.1934 30.2416C95.4039 30.4107 95.5827 30.6248 95.7196 30.8716C95.8565 31.1184 95.9488 31.3931 95.9913 31.68C96.0337 31.9669 96.0255 32.2603 95.967 32.5437C95.9085 32.827 95.801 33.0946 95.6505 33.3312C95.5 33.5677 95.3096 33.7687 95.09 33.9226C94.8704 34.0764 94.626 34.1802 94.3707 34.2279L81.8443 36.569C81.3288 36.6647 80.8007 36.5267 80.3757 36.1852C79.9507 35.8438 79.6635 35.3268 79.5773 34.7477Z" fill="#6C63FF"/>
<path d="M186.353 363.951L186.686 355.535C190.157 353.449 194.029 352.348 197.966 352.326C192.548 357.304 193.225 366.901 189.552 373.595C188.392 375.673 186.831 377.432 184.985 378.739C183.138 380.047 181.053 380.871 178.885 381.151L174.351 384.271C173.729 380.373 173.866 376.369 174.753 372.537C175.64 368.704 177.256 365.133 179.489 362.07C180.757 360.365 182.211 358.847 183.816 357.551C184.902 360.769 186.353 363.951 186.353 363.951Z" fill="#F2F2F2"/>
<path d="M246.465 385.178C246.466 385.286 246.447 385.393 246.41 385.493C246.374 385.593 246.32 385.684 246.252 385.76C246.184 385.836 246.103 385.897 246.014 385.938C245.925 385.979 245.83 386 245.734 386H48.8542C48.6602 386 48.4741 385.913 48.3369 385.759C48.1997 385.605 48.1227 385.396 48.1227 385.178C48.1227 384.96 48.1997 384.751 48.3369 384.597C48.4741 384.442 48.6602 384.356 48.8542 384.356H245.734C245.83 384.355 245.925 384.376 246.014 384.418C246.103 384.459 246.184 384.519 246.252 384.596C246.32 384.672 246.374 384.763 246.41 384.863C246.447 384.963 246.466 385.07 246.465 385.178Z" fill="#CCCCCC"/>
<path d="M49.3286 163.177C45.8369 163.099 27.0812 162.494 24.0055 162.643C23.8315 161.958 18.001 170.356 17.8592 170.408C17.7647 170.52 17.6958 170.656 17.6582 170.805C17.6207 170.954 17.6157 171.11 17.6437 171.261C17.6717 171.413 17.7318 171.554 17.8189 171.673C17.9061 171.793 18.0176 171.887 18.1441 171.947C18.4868 172.181 48.7235 171.552 49.0898 171.635C49.2483 171.632 49.4028 171.579 49.5356 171.481C49.6684 171.384 49.7741 171.247 49.8404 171.085L50.0425 170.576C50.0635 169.706 50.317 165.258 50.0894 164.497C50.1453 164.354 50.1687 164.198 50.1576 164.043C50.1465 163.887 50.1012 163.737 50.0257 163.607C49.9503 163.476 49.8471 163.368 49.7254 163.293C49.6037 163.218 49.4674 163.178 49.3286 163.177Z" fill="#3F3D56"/>
<path opacity="0.17" d="M50.0424 170.575C49.865 171.055 49.638 171.657 49.0897 171.635L18.4633 172.021C18.3184 172.019 18.1764 171.976 18.0509 171.894C17.9254 171.813 17.8206 171.697 17.7466 171.557C17.6725 171.417 17.6318 171.258 17.6282 171.095C17.6246 170.932 17.6583 170.771 17.7261 170.627L50.0424 170.575Z" fill="black"/>
<path d="M24.1486 162.54C23.819 161.899 15.631 116.364 14.9476 115.983L9.35728 108.297L8.85763 107.875C8.16282 107.446 6.49613 107.736 6.64623 108.928C7.95956 116.005 16.4069 156.311 16.592 162.595L17.6089 170.601C17.627 170.737 17.6704 170.867 17.7361 170.983C17.8018 171.1 17.8885 171.199 17.9906 171.275C18.0926 171.352 18.2077 171.403 18.3285 171.426C18.4493 171.45 18.5731 171.444 18.6919 171.41C18.9834 171.375 19.2616 171.255 19.4993 171.062C19.7369 170.869 19.9257 170.61 20.047 170.31C20.1232 170.027 24.5314 162.704 24.1486 162.54Z" fill="#3F3D56"/>
<path opacity="0.17" d="M9.35596 108.297L20.0481 170.311C19.6905 171.329 18.0173 172.041 17.6276 170.707C17.6208 170.705 6.65872 108.967 6.64758 108.93C6.53078 107.444 8.71526 107.397 9.35596 108.297Z" fill="black"/>
<path d="M9.67798 110.833L15.1085 119.34L21.2035 151.874L18.3698 154.652L9.67798 110.833Z" fill="#6C63FF"/>
<path d="M45.8235 167.564L47.3258 167.633C47.3493 167.138 47.422 166.648 47.5424 166.172C47.7685 164.965 47.971 163.53 47.0338 163.536C46.398 163.467 46.1814 164.372 46.0684 165.357C46.0392 166.098 45.9573 166.837 45.8235 167.564Z" fill="#2F2E41"/>
<path d="M37.2051 165.293L38.2176 165.335L38.7074 165.357C38.698 164.753 38.9476 163.509 38.3401 163.202C38.2434 163.156 38.1391 163.132 38.0339 163.134C37.4641 163.097 37.2946 163.583 37.2427 164.145C37.2098 164.483 37.2239 164.843 37.2145 165.124C37.2145 165.182 37.2098 165.24 37.2051 165.293Z" fill="#2F2E41"/>
<path d="M34.2052 165.155L35.2224 165.203L35.7075 165.224C35.6981 164.531 36.023 163.017 35.034 162.996C34.1204 162.938 34.2381 164.245 34.2146 164.986C34.2146 165.044 34.2099 165.103 34.2052 165.155Z" fill="#2F2E41"/>
<path d="M31.2052 165.023L32.2177 165.065L32.7075 165.087C32.6981 164.399 33.023 162.885 32.0341 162.864C31.1204 162.8 31.2382 164.107 31.2146 164.854C31.2146 164.912 31.2099 164.97 31.2052 165.023Z" fill="#2F2E41"/>
<path d="M28.2052 164.886L29.2224 164.933L29.7075 164.954C29.6981 164.261 30.023 162.752 29.0341 162.726C28.1204 162.668 28.2382 163.975 28.2146 164.716C28.2146 164.774 28.2099 164.833 28.2052 164.886Z" fill="#2F2E41"/>
<path d="M25.2053 164.753L26.2179 164.796L26.7076 164.817C26.6982 164.182 26.9714 162.853 26.2461 162.625H26.2414C26.1742 162.603 26.1043 162.592 26.0342 162.594C25.9487 162.585 25.8625 162.594 25.7799 162.62H25.7752C25.1441 162.805 25.2336 163.917 25.2147 164.584C25.2147 164.642 25.21 164.7 25.2053 164.753Z" fill="#2F2E41"/>
<path d="M42.7953 164.393L44.2976 164.462C44.2976 164.399 44.2976 164.33 44.3023 164.25C44.3395 163.848 44.3458 163.442 44.3212 163.038C44.2693 162.594 44.0998 162.244 43.6241 162.234C43.1391 162.202 42.946 162.551 42.8706 163.001C42.8531 163.078 42.8405 163.156 42.833 163.234V163.239C42.7953 163.652 42.8188 164.097 42.7953 164.393Z" fill="#2F2E41"/>
<path d="M39.7953 164.256L41.2976 164.324C41.3295 163.87 41.3389 163.414 41.3259 162.959C41.2835 162.493 41.1186 162.112 40.6241 162.101C40.1249 162.064 39.9319 162.445 39.8565 162.917C39.7859 163.372 39.8235 163.917 39.7953 164.256Z" fill="#2F2E41"/>
<path d="M36.7954 164.123L37.2428 164.145L38.2977 164.192C38.293 163.938 38.3354 163.568 38.3401 163.202C38.3441 163.093 38.341 162.983 38.3307 162.874C38.293 162.382 38.1376 161.974 37.6243 161.964C37.1015 161.932 36.9178 162.34 36.8519 162.837C36.786 163.282 36.8237 163.795 36.7954 164.123Z" fill="#2F2E41"/>
<path d="M42.8235 167.431L44.3258 167.495C44.3211 166.807 44.6413 165.293 43.6523 165.272C42.6633 165.203 42.88 166.738 42.8235 167.431Z" fill="#2F2E41"/>
<path d="M39.8236 167.294L41.3259 167.363C41.3212 166.669 41.6415 165.156 40.6525 165.134C39.6635 165.071 39.8801 166.606 39.8236 167.294Z" fill="#2F2E41"/>
<path d="M36.8236 167.162L38.3259 167.225C38.3212 166.733 38.486 165.822 38.2176 165.335C38.159 165.228 38.0756 165.14 37.976 165.081C37.8765 165.022 37.7647 164.995 37.6525 165.002C37.4983 164.984 37.3433 165.027 37.2145 165.124C36.7341 165.478 36.8707 166.601 36.8236 167.162Z" fill="#2F2E41"/>
<path d="M33.8237 167.024L35.3261 167.093C35.3213 166.601 35.4814 165.695 35.2224 165.203C35.164 165.094 35.0799 165.004 34.9795 164.945C34.8791 164.885 34.766 164.857 34.6526 164.864C34.4984 164.845 34.3431 164.888 34.2146 164.986C33.7342 165.351 33.8708 166.468 33.8237 167.024Z" fill="#2F2E41"/>
<path d="M30.8237 166.892L32.3261 166.955C32.3213 166.463 32.4862 165.552 32.2177 165.065C32.1592 164.958 32.0757 164.87 31.9762 164.811C31.8767 164.752 31.7648 164.725 31.6526 164.732C31.4984 164.714 31.3434 164.757 31.2146 164.854C30.7343 165.208 30.8708 166.331 30.8237 166.892Z" fill="#2F2E41"/>
<path d="M27.8237 166.754L29.3261 166.823C29.3213 166.331 29.4815 165.426 29.2224 164.933C29.1644 164.823 29.0805 164.734 28.9799 164.674C28.8794 164.614 28.7661 164.587 28.6526 164.595C28.4984 164.575 28.3431 164.619 28.2146 164.716C27.7342 165.081 27.8708 166.198 27.8237 166.754Z" fill="#2F2E41"/>
<path d="M24.8239 166.622L26.3262 166.685C26.3215 166.193 26.4816 165.288 26.2179 164.796C26.1597 164.687 26.0763 164.599 25.9767 164.54C25.8771 164.481 25.765 164.454 25.6527 164.462C25.4985 164.444 25.3435 164.487 25.2147 164.584C24.7344 164.944 24.871 166.061 24.8239 166.622Z" fill="#2F2E41"/>
</g>
<defs>
<clipPath id="clip0_292_8">
<rect width="314" height="386" fill="white"/>
</clipPath>
</defs>
</svg>
